<svg width="89" height="100" viewBox="0 0 89 100" fill="none" xmlns="http://www.w3.org/2000/svg">
<rect width="88.4956" height="100" rx="13" fill="#30301A"/>
<path fill-rule="evenodd" clip-rule="evenodd" d="M43.719 41.04C38.6229 41.04 34.5293 45.1336 34.5293 50.2297C34.5293 55.3258 38.6229 59.4194 43.719 59.4194C48.815 59.4194 52.9086 55.3258 52.9086 50.2297C52.9086 45.1336 48.815 41.04 43.719 41.04ZM44.7471 47.5493H46.1059L46.106 46.554L41.4515 46.554V47.5416L42.9004 47.5416C43.4409 47.5416 43.8913 47.8759 44.0865 48.3469H41.4515V49.3344H44.0865C43.8914 49.8055 43.4334 50.1321 42.9004 50.1321H41.4515V51.3249L43.8313 53.7863L45.2051 53.7863L42.6151 51.1274H42.9004C43.9739 51.1274 44.8673 50.3601 45.0925 49.3421H46.106V48.3545H45.0925C45.0324 48.0583 44.9123 47.7847 44.7471 47.5493Z" fill="white"/>
<path fill-rule="evenodd" clip-rule="evenodd" d="M17.2766 35.9858C17.569 36.4453 18.0702 36.8212 18.5714 37.0301C19.3233 37.3225 20.1587 37.3643 20.9524 37.3643C24.8789 37.3643 31.1866 35.6516 33.4418 34.9833C33.943 36.1529 35.3215 37.2389 38.6632 37.2389C40.3285 37.2389 41.9074 36.9508 42.4424 36.8531C42.5516 36.8332 42.6173 36.8212 42.6315 36.8212C43.258 36.6959 43.801 36.7377 44.5529 36.9465C45.9381 37.3313 47.1107 38.1414 48.3318 38.9851C48.4363 39.0573 48.5411 39.1297 48.6465 39.2022L48.6475 39.2029C50.0257 40.1633 51.4038 41.1238 53.116 41.6666C55.9146 42.502 58.5462 42.7109 60.8854 42.2514C61.8358 42.0754 62.7567 41.751 63.6728 41.4284C63.8438 41.3682 64.0145 41.308 64.1853 41.2489C65.146 40.873 66.065 40.5388 67.0257 40.3299C67.117 40.3117 67.2083 40.2854 67.3031 40.2582C67.4252 40.2231 67.553 40.1864 67.6941 40.1628C67.7943 40.1378 67.8962 40.1111 67.9981 40.0843C68.4058 39.9774 68.8136 39.8704 69.1143 39.8704C69.2396 39.8704 69.2814 39.8704 69.3231 39.9122L70.4092 40.2464V29.0517C70.4092 28.3834 69.8244 27.9239 69.1143 27.9239C68.8507 27.9239 68.5611 28.0019 68.2865 28.0759L68.2865 28.0759C68.213 28.0957 68.1406 28.1152 68.07 28.1328C68.0041 28.1493 67.9317 28.1722 67.863 28.194C67.7576 28.2275 67.6611 28.2581 67.6105 28.2581L67.4434 28.2999C66.0232 28.5087 64.603 28.7176 63.2245 28.7176C61.2613 28.7176 51.4866 26.2113 47.8947 25.2506C47.1011 25.0835 46.3491 25 45.5973 25C44.01 25 43.1329 25.3759 43.0493 25.4177C41.8378 25.9607 39.5823 26.5873 39.5823 26.5873C35.6975 27.6734 20.5346 32.4353 20.4096 32.4771C18.321 33.0619 17.235 33.8138 17.0261 34.7327C16.9425 35.1922 17.0678 35.6099 17.2767 35.9859L17.2766 35.9858ZM51.357 27.821L51.5267 27.8642H51.357V27.821ZM63.9593 39.4845L64.017 39.4648H63.9593V39.4845ZM68.6966 38.1578L68.686 38.1587V37.8893H68.6903C68.6923 37.9836 68.6944 38.0732 68.6966 38.1578Z" fill="white"/>
<path fill-rule="evenodd" clip-rule="evenodd" d="M70.8338 64.0142C70.5414 63.5547 70.0402 63.1788 69.539 62.9699C68.7871 62.6775 67.9517 62.6357 67.158 62.6357C63.2315 62.6357 56.9238 64.3484 54.6686 65.0167C54.1674 63.8471 52.7889 62.7611 49.4472 62.7611C47.7819 62.7611 46.203 63.0492 45.668 63.1469C45.5588 63.1668 45.4931 63.1788 45.4789 63.1788C44.8524 63.3041 44.3094 63.2623 43.5575 63.0535C42.1723 62.6687 40.9997 61.8586 39.7786 61.0149C39.6741 60.9427 39.5693 60.8703 39.4639 60.7978L39.4629 60.7971C38.0847 59.8367 36.7066 58.8762 34.9944 58.3334C32.1958 57.498 29.5642 57.2891 27.225 57.7486C26.2746 57.9246 25.3537 58.249 24.4376 58.5716C24.2667 58.6318 24.0959 58.692 23.9251 58.7511C22.9644 59.127 22.0454 59.4612 21.0847 59.6701C20.9934 59.6883 20.9021 59.7146 20.8073 59.7418C20.6852 59.7769 20.5574 59.8136 20.4163 59.8372C20.3161 59.8622 20.2142 59.8889 20.1123 59.9157C19.7046 60.0226 19.2968 60.1296 18.9961 60.1296C18.8708 60.1296 18.829 60.1296 18.7873 60.0878L17.7012 59.7536V70.9483C17.7012 71.6166 18.286 72.0761 18.9961 72.0761C19.2597 72.0761 19.5493 71.9981 19.8239 71.9241L19.8239 71.9241C19.8974 71.9043 19.9698 71.8848 20.0404 71.8672C20.1063 71.8507 20.1787 71.8278 20.2474 71.806C20.3527 71.7725 20.4493 71.7419 20.4999 71.7419L20.667 71.7001C22.0872 71.4913 23.5074 71.2824 24.8859 71.2824C26.8491 71.2824 36.6238 73.7887 40.2157 74.7494C41.0093 74.9165 41.7613 75 42.5131 75C44.1004 75 44.9775 74.6241 45.0611 74.5823C46.2726 74.0393 48.5281 73.4127 48.5281 73.4127C52.4129 72.3266 67.5758 67.5647 67.7008 67.5229C69.7894 66.9381 70.8754 66.1862 71.0843 65.2673C71.1679 64.8078 71.0426 64.3901 70.8337 64.0141L70.8338 64.0142ZM36.7535 72.1791L36.5837 72.1358H36.7535V72.1791ZM24.1504 60.5158L24.0934 60.5352H24.1504V60.5158ZM19.4138 61.8422L19.4245 61.8413V62.1103H19.4201C19.4181 62.0161 19.416 61.9267 19.4138 61.8422Z" fill="white"/>
</svg>
