<svg width="52" height="52" viewBox="0 0 52 52" fill="none" xmlns="http://www.w3.org/2000/svg">
<path d="M16.7485 32.2546C16.7484 32.2545 16.7482 32.2545 16.7482 32.2546C16.7331 32.2703 16.6911 32.2901 16.6634 32.2969C16.654 32.2992 16.6444 32.2985 16.6349 32.2967L12.5276 31.5512C12.1279 31.4774 11.608 31.6395 11.3197 31.9285L10.3644 32.8825C10.0723 33.174 9.94679 33.5465 10.0208 33.9043C10.0953 34.2619 10.3576 34.5537 10.7411 34.7062L15.2791 36.4986C15.3463 36.5256 15.476 36.6546 15.5023 36.7225L17.2961 41.2603C17.4773 41.7166 17.8627 42 18.3015 42C18.595 42 18.8861 41.8715 19.1207 41.636L20.0741 40.6821C20.3669 40.3903 20.5258 39.882 20.4518 39.4739L19.7137 35.4105C19.7077 35.3774 19.7046 35.3413 19.7156 35.3096C19.7289 35.2716 19.756 35.2473 19.7886 35.2238C20.3864 34.7921 25.7016 30.9383 27.6865 28.9539C28.2685 28.3719 29.2562 28.5767 29.5588 29.3422L33.4478 39.1807C33.6283 39.6382 34.014 39.922 34.4527 39.922C34.7469 39.922 35.0376 39.7931 35.2729 39.5588L36.7725 38.0587C37.0655 37.766 37.2244 37.2584 37.1506 36.8501L34.5947 22.782C34.5884 22.7314 34.6246 22.6137 34.6586 22.5764L38.7813 18.4534C41.7992 15.436 42.8318 12.2531 41.2923 10.7138C40.8251 10.2467 40.1805 10 39.4299 10C37.7682 10 35.5709 11.2049 33.5517 13.2237L29.4291 17.3457C29.4006 17.3713 29.3035 17.4103 29.2243 17.4103C29.2242 17.4103 29.2241 17.4103 29.224 17.4104C29.224 17.4105 29.2238 17.4105 29.2237 17.4105L15.151 14.8546C14.7517 14.7818 14.2323 14.9439 13.9441 15.2327L12.4431 16.7334C12.151 17.0254 12.026 17.3979 12.1002 17.7559C12.1742 18.1136 12.4375 18.4054 12.8212 18.5572L22.6616 22.4456C23.4271 22.7481 23.632 23.7358 23.05 24.3178C20.9903 26.3766 16.9179 32.0194 16.7488 32.2546C16.7487 32.2547 16.7486 32.2546 16.7485 32.2546ZM25.1017 23.8664C25.3936 23.5748 25.519 23.2019 25.4445 22.8446C25.3705 22.4869 25.1083 22.1951 24.7242 22.0426L15.2096 18.2831C14.2898 17.9197 14.0438 16.7327 14.7433 16.0337C14.8527 15.9368 15.0222 15.9817 15.166 16.0078L29.0216 18.5245C29.4209 18.5973 29.9409 18.4357 30.2295 18.1472L34.3531 14.0237C36.138 12.2399 38.0834 11.1308 39.4309 11.1308C39.8814 11.1308 40.2386 11.2603 40.4928 11.5141C41.5099 12.5315 40.4075 15.2279 37.9818 17.6525L33.8598 21.7749C33.5663 22.067 33.4074 22.5759 33.4817 22.9826L36.0373 37.0501C36.0437 37.1011 36.007 37.2193 35.9734 37.2562C35.2734 37.9568 34.0848 37.7105 33.7207 36.7895L29.9617 27.2799C29.7806 26.8225 29.3956 26.5384 28.9564 26.5384C28.6626 26.5384 28.3715 26.6679 28.1372 26.9024L26.8862 28.1531C24.8913 30.1477 19.1381 34.2969 19.0797 34.3396C18.7166 34.6021 18.5106 35.1133 18.5902 35.5546L19.338 39.6745C19.3453 39.725 19.3082 39.8436 19.2743 39.8805C18.833 40.3227 18.0831 40.1675 17.8535 39.5865L16.5567 36.3053C16.4155 35.9484 16.0538 35.5868 15.6961 35.445L12.4134 34.1481C11.833 33.9188 11.6777 33.1698 12.1191 32.7286C12.1476 32.7037 12.2448 32.664 12.3248 32.664C12.3249 32.664 12.3251 32.664 12.3252 32.6641L16.4472 33.4122C16.885 33.489 17.4035 33.2818 17.6627 32.9218C17.7038 32.8645 21.8547 27.1123 23.8502 25.1178L25.1017 23.8664Z" fill="#E9D900"/>
<rect x="1" y="1" width="50" height="50" rx="4" stroke="#F7E600" stroke-width="2"/>
</svg>
