<svg width="18" height="20" viewBox="0 0 18 20" fill="none" xmlns="http://www.w3.org/2000/svg">
<path fill-rule="evenodd" clip-rule="evenodd" d="M5 0C5.55228 0 6 0.447715 6 1V3H13V1C13 0.447715 13.4477 0 14 0C14.5523 0 15 0.447715 15 1V3C16.6569 3 18 4.34315 18 6V17C18 18.6569 16.6569 20 15 20H3C1.34315 20 0 18.6569 0 17V6C0 4.34315 1.34315 3 3 3H4V1C4 0.447715 4.44772 0 5 0ZM13 5C13 5.55228 13.4477 6 14 6C14.5523 6 15 5.55228 15 5C15.5523 5 16 5.44772 16 6V17C16 17.5523 15.5523 18 15 18H3C2.44772 18 2 17.5523 2 17V6C2 5.44772 2.44772 5 3 5H4C4 5.55228 4.44772 6 5 6C5.55228 6 6 5.55228 6 5H13ZM6 11C6 11.5523 5.55228 12 5 12C4.44772 12 4 11.5523 4 11C4 10.4477 4.44772 10 5 10C5.55228 10 6 10.4477 6 11ZM5 16C5.55228 16 6 15.5523 6 15C6 14.4477 5.55228 14 5 14C4.44772 14 4 14.4477 4 15C4 15.5523 4.44772 16 5 16ZM10 11C10 11.5523 9.55229 12 9 12C8.44771 12 8 11.5523 8 11C8 10.4477 8.44771 10 9 10C9.55229 10 10 10.4477 10 11ZM9 16C9.55229 16 10 15.5523 10 15C10 14.4477 9.55229 14 9 14C8.44771 14 8 14.4477 8 15C8 15.5523 8.44771 16 9 16ZM14 11C14 11.5523 13.5523 12 13 12C12.4477 12 12 11.5523 12 11C12 10.4477 12.4477 10 13 10C13.5523 10 14 10.4477 14 11ZM13 16C13.5523 16 14 15.5523 14 15C14 14.4477 13.5523 14 13 14C12.4477 14 12 14.4477 12 15C12 15.5523 12.4477 16 13 16Z" fill="#302C00"/>
</svg>
