<svg width="52" height="52" viewBox="0 0 52 52" fill="none" xmlns="http://www.w3.org/2000/svg">
<rect x="1" y="1" width="50" height="50" rx="4" stroke="#F7E600" stroke-width="2"/>
<path d="M14.7844 32.9629C13.9612 32.9629 13.292 33.6318 13.292 34.4553C13.292 35.2781 13.9614 35.9477 14.7844 35.9477C15.6076 35.9477 16.2768 35.278 16.2768 34.4553C16.2771 33.6318 15.6076 32.9629 14.7844 32.9629ZM14.7844 34.8286C14.5785 34.8286 14.4112 34.6609 14.4112 34.4553C14.4112 34.2489 14.5783 34.0821 14.7844 34.0821C14.9903 34.0821 15.1576 34.2489 15.1576 34.4553C15.1576 34.6609 14.9905 34.8286 14.7844 34.8286Z" fill="#F7E600"/>
<path d="M25.0547 28.6719H26.5383V29.7913H25.0547V28.6719Z" fill="#F7E600"/>
<path d="M28.3951 22.3286H21.5807C19.6154 22.3286 17.9467 23.2934 17.0019 24.9764L15.6406 27.9256H35.2408L32.5072 24.295C31.5519 23.0272 30.0915 22.3286 28.3948 22.3286H28.3951ZM17.9886 25.5053C18.7307 24.1974 20.0391 23.4478 21.5805 23.4478H24.2983V26.8059H17.3886L17.9886 25.5053ZM25.418 26.8064V23.4484H28.3954C29.7514 23.4484 30.8641 23.9741 31.6132 24.9689L32.9971 26.8064H25.418Z" fill="#F7E600"/>
<path d="M38.1611 26.8406C37.8212 26.8297 37.5151 26.8201 37.2767 26.8071L34.7099 23.3985C33.6423 21.981 32.0878 21.1114 30.2693 20.8917V20.0898H29.1498V20.8345H20.1946V20.0898H19.0751V20.9204C16.9975 21.233 15.2591 22.4211 14.209 24.2921L12.9588 26.9987C10.614 27.6351 9 29.7165 9 32.1535V33.3356C9 34.832 10.1809 36.054 11.6598 36.1274C12.2579 37.2403 13.4336 37.9998 14.7836 37.9998C16.1306 37.9998 17.3044 37.2442 17.9041 36.1342H34.424C35.0237 37.2442 36.1975 37.9998 37.5444 37.9998C38.8922 37.9998 40.0666 37.2434 40.6657 36.1326C42.5041 36.1152 44.059 34.8557 44.4548 33.0499L45.1818 29.5517L45.1932 29.438C45.1943 27.058 40.7916 26.9216 38.161 26.8407L38.1611 26.8406ZM14.7836 36.8806C13.4463 36.8806 12.3583 35.7927 12.3583 34.4554C12.3583 33.1181 13.4463 32.0301 14.7836 32.0301C16.1209 32.0301 17.2088 33.1181 17.2088 34.4554C17.2091 35.7924 16.1209 36.8806 14.7836 36.8806ZM37.5448 36.8806C36.2075 36.8806 35.1195 35.7927 35.1195 34.4554C35.1195 33.1181 36.2075 32.0301 37.5448 32.0301C38.8821 32.0301 39.97 33.1181 39.97 34.4554C39.97 35.7924 38.8821 36.8806 37.5448 36.8806ZM43.369 32.776H41.8357V33.8955H42.8708C42.4377 34.478 41.7873 34.8728 41.0454 34.9822C41.0715 34.8101 41.0894 34.6344 41.0894 34.4551C41.0894 32.5007 39.4991 30.9104 37.5447 30.9104C35.5903 30.9104 34 32.5007 34 34.4551C34 34.6461 34.0195 34.832 34.0489 35.0147L18.2794 35.015C18.3088 34.8322 18.3283 34.6464 18.3283 34.4554C18.3283 32.5009 16.738 30.9106 14.7836 30.9106C12.8289 30.9104 11.2386 32.5007 11.2386 34.4551C11.2386 34.6141 11.2527 34.7692 11.2732 34.9223C10.7826 34.7596 10.3953 34.3809 10.2222 33.8955H10.8654V32.776H10.1192V32.1537C10.1192 30.1532 11.4984 28.4552 13.4734 28.0257L13.7459 27.9661L15.1957 24.8215C16.2269 22.999 18.0465 21.9542 20.1904 21.9542H29.3415C31.2252 21.9542 32.7722 22.6867 33.8155 24.0721L36.6843 27.8816L36.9302 27.9042C37.2165 27.931 37.6179 27.9435 38.1265 27.9594C39.7331 28.0091 43.9676 28.14 44.073 29.3899L43.369 32.776Z" fill="#F7E600"/>
<path d="M37.5456 32.9629C36.7224 32.9629 36.0532 33.6318 36.0532 34.4553C36.0532 35.2781 36.7227 35.9477 37.5456 35.9477C38.3689 35.9477 39.038 35.278 39.038 34.4553C39.038 33.6318 38.3686 32.9629 37.5456 32.9629ZM37.5456 34.8286C37.3397 34.8286 37.1724 34.6609 37.1724 34.4553C37.1724 34.2489 37.3395 34.0821 37.5456 34.0821C37.7515 34.0821 37.9189 34.2489 37.9189 34.4553C37.9186 34.6609 37.7515 34.8286 37.5456 34.8286Z" fill="#F7E600"/>
<path d="M20.5749 20.0898H32.8817V18.9703H32.5085V15.9851H31.0161V13H20.575V16.7313H16.8366V18.9703H16.4634V20.0898H20.5749ZM31.3885 18.9703H29.1496L29.1498 17.1046H31.3888L31.3885 18.9703ZM21.6943 14.1195H29.896V15.9851H28.0303V18.9703H27.6571V16.7313H21.6941L21.6943 14.1195ZM17.956 17.8508H26.5381V18.9703H17.956V17.8508Z" fill="#F7E600"/>
</svg>
