<svg width="1059" height="625" viewBox="0 0 1059 625" fill="none" xmlns="http://www.w3.org/2000/svg">
<path d="M101.5 49H178.973L318 135.5" stroke="black"/>
<path d="M114 580.5H191.472L330.5 494" stroke="black"/>
<path d="M329.5 312.5H108" stroke="black"/>
<path d="M955.499 49H878.026L738.999 135.5" stroke="black"/>
<path d="M943 580.5H865.527L726.5 494" stroke="black"/>
<path d="M727.499 312.5H948.999" stroke="black"/>
<div className="hygine-icon"><rect width="88.4956" height="100" rx="13" transform="matrix(-1 0 0 1 1059 0)" fill="#30301A" />
<path d="M1041.25 41.403C1041.25 42.2763 1040.54 42.9841 1039.67 42.9841C1038.8 42.9841 1038.09 42.2763 1038.09 41.403C1038.09 40.5297 1038.8 39.8218 1039.67 39.8218C1040.54 39.8218 1041.25 40.5297 1041.25 41.403Z" fill="white"/>
<path d="M1035.91 31.8175L1034.83 29.3472L1033.84 31.8175L1031.66 32.7067L1033.94 33.6951L1034.93 35.9677L1035.81 33.6951L1038.09 32.7067L1035.91 31.8175Z" fill="white"/>
<path d="M1041.05 49.308C1040.76 48.1225 1039.77 47.8261 1039.77 47.8261L1035.22 48.3196L1031.07 38.636C1030.68 37.549 1029.39 35.7708 1026.63 35.4736H1002.32C999.548 35.77 998.264 37.5491 997.869 38.636L993.817 48.3196L989.469 47.8254C989.469 47.8254 988.481 48.1218 988.184 49.3073C987.888 50.4929 987.592 52.6668 990.358 53.3589L991.84 53.5567C989.963 57.0156 988.085 63.3395 993.224 68.5766C993.322 68.6752 994.607 69.6636 995.299 69.8614V72.9245C995.299 74.11 996.287 74.9999 997.374 74.9999H1000.14C1001.33 74.9999 1002.22 74.0115 1002.22 72.9245V70.0592H1026.82V72.9245C1026.82 74.11 1027.81 74.9999 1028.9 74.9999H1031.76C1032.95 74.9999 1033.84 74.0115 1033.84 72.9245V69.8614C1034.63 69.6636 1035.32 69.1694 1035.81 68.5766C1041.05 63.3395 1039.37 57.114 1037.59 53.4581L1038.88 53.3595C1041.64 52.6675 1041.35 50.5927 1041.05 49.308L1041.05 49.308ZM1001.13 39.9209L1001.23 39.8223C1001.33 39.7237 1001.53 39.1303 1002.61 38.9331H1026.33C1027.42 39.0317 1027.71 39.6252 1027.71 39.7237L1031.76 49.3087L997.079 49.2101L1001.13 39.9209ZM999.451 61.4623C997.771 61.4623 996.388 60.079 996.388 58.3993C996.388 56.7196 997.771 55.3362 999.451 55.3362C1001.13 55.3362 1002.51 56.7196 1002.51 58.3993C1002.51 60.079 1001.13 61.4623 999.451 61.4623ZM1029.19 61.4623C1027.51 61.4623 1026.13 60.079 1026.13 58.3993C1026.13 56.7196 1027.51 55.3362 1029.19 55.3362C1030.87 55.3362 1032.26 56.7196 1032.26 58.3993C1032.26 60.079 1030.87 61.4623 1029.19 61.4623Z" fill="white"/>
<path d="M992.04 42.3912C992.04 43.2639 991.332 43.9717 990.459 43.9717C989.586 43.9717 988.878 43.2639 988.878 42.3912C988.878 41.5179 989.586 40.8101 990.459 40.8101C991.332 40.8101 992.04 41.5179 992.04 42.3912Z" fill="white"/>
<path d="M1023.17 29.0514C1023.17 29.9247 1022.46 30.6326 1021.59 30.6326C1020.71 30.6326 1020 29.9247 1020 29.0514C1020 28.1781 1020.71 27.4702 1021.59 27.4702C1022.46 27.4702 1023.17 28.1781 1023.17 29.0514Z" fill="white"/>
<path d="M994.609 33.597L996.882 32.6086L994.708 31.7194L993.621 29.1499L992.633 31.7194L990.459 32.6086L992.732 33.597L993.72 35.8696L994.609 33.597Z" fill="white"/>
<path d="M1010.32 29.3478L1012.59 28.4587L1010.42 27.5695L1009.33 25L1008.34 27.5695L1006.17 28.4587L1008.44 29.3478L1009.43 31.7196L1010.32 29.3478Z" fill="white"/></div>
<rect y="1" width="88.4956" height="100" rx="13" fill="#30301A" className="comfort-icon"/>
<path fill-rule="evenodd" clip-rule="evenodd" d="M36.3019 35.8875C36.8327 37.6935 37.0388 39.7488 36.2943 41.1117C33.5317 33.6356 29.5575 29.1962 23.0369 26.2295C19.7503 29.7082 20.1093 33.9407 21.8259 38.4531C20.9852 38.4288 20.1444 38.4045 19.3039 38.3798C23.3421 48.5708 28.9611 56.3332 40.2242 61.2142C38.29 61.2259 36.3554 61.2374 34.4203 61.2487C39.5618 65.473 46.336 68.6815 53.0263 68.004C36.7149 58.8977 26.2166 43.6371 24.4748 33.9256C24.5817 34.2337 24.689 34.5407 24.8004 34.845C25.3358 36.4714 26.007 38.0883 26.7953 39.6873C32.1636 51.2421 40.9467 60.114 54.6121 67.7019C54.6403 67.7189 54.6677 67.7369 54.6965 67.7537C54.6994 67.7535 54.7017 67.7526 54.7038 67.7521C58.2211 69.7009 62.0562 71.5654 66.2441 73.3684L66.984 71.6492C62.9114 69.8956 59.182 68.0845 55.7604 66.1943C56.8737 62.7627 56.638 57.188 52.5776 53.1394C52.6495 55.1976 52.4026 55.5118 51.6007 56.9655C48.7767 49.0588 44.2096 41.0396 36.302 35.8887L36.3019 35.8875Z" fill="white"/>
<rect width="88.4956" height="100" rx="13" transform="matrix(-1 0 0 1 1059 262)" fill="#30301A"/>
<path d="M1017.34 288.921C1017.34 289.982 1016.39 290.843 1015.21 290.843C1014.03 290.843 1013.07 289.982 1013.07 288.921C1013.07 287.86 1014.03 287 1015.21 287C1016.39 287 1017.34 287.86 1017.34 288.921Z" fill="white"/>
<path d="M1001.29 292.957C1001.29 292.543 1001.11 292.146 1000.79 291.853C1000.46 291.56 1000.02 291.394 999.56 291.394C999.1 291.394 998.659 291.558 998.333 291.851C998.008 292.144 997.825 292.541 997.826 292.954C997.826 293.369 998.01 293.765 998.335 294.058C998.662 294.35 999.103 294.513 999.564 294.512C1000.02 294.512 1000.46 294.348 1000.79 294.057C1001.11 293.765 1001.29 293.37 1001.29 292.957Z" fill="white"/>
<path d="M1033.08 293.641C1033.08 294.502 1032.31 295.2 1031.35 295.2C1030.39 295.2 1029.62 294.502 1029.62 293.641C1029.62 292.78 1030.39 292.082 1031.35 292.082C1032.31 292.082 1033.08 292.78 1033.08 293.641Z" fill="white"/>
<path fill-rule="evenodd" clip-rule="evenodd" d="M995.214 318.214L1013.18 335.846L1005.03 318.214H995.215" fill="white"/>
<path fill-rule="evenodd" clip-rule="evenodd" d="M1006.63 318.214L1015.31 337L1024.16 318.214H1006.63Z" fill="white"/>
<path fill-rule="evenodd" clip-rule="evenodd" d="M1017.24 336.301L1035.67 318.213H1025.76L1017.24 336.301" fill="white"/>
<path fill-rule="evenodd" clip-rule="evenodd" d="M1028.64 308.704H1017.02L1024.99 316.457L1028.64 308.704Z" fill="white"/>
<path fill-rule="evenodd" clip-rule="evenodd" d="M1023.63 317.025L1015.44 309.053L1007.25 317.025H1023.63Z" fill="white"/>
<path fill-rule="evenodd" clip-rule="evenodd" d="M1013.86 308.704H1002.23L1005.84 316.509L1013.86 308.704" fill="white"/>
<path fill-rule="evenodd" clip-rule="evenodd" d="M1000.98 309.456L995 317.025H1004.48L1000.98 309.456" fill="white"/>
<path fill-rule="evenodd" clip-rule="evenodd" d="M1035.88 317.025L1029.89 309.448L1026.32 317.025H1035.88" fill="white"/>
<path fill-rule="evenodd" clip-rule="evenodd" d="M1015.69 293.028L1020.84 300.493L1021.35 301.228L1030.39 295.759L1027.97 306.09V306.428H1027.89L1027.89 306.438C1027.88 306.434 1027.86 306.431 1027.85 306.428H1002.95C1002.94 306.431 1002.92 306.434 1002.91 306.438L1002.91 306.428H1002.87V306.259L1000.42 295.759L1009.48 301.228L1015.13 293.028L1015.41 292.617L1015.69 293.028Z" fill="white"/>
<rect y="263" width="88.4956" height="100" rx="13" fill="#30301A"/>
<path fill-rule="evenodd" clip-rule="evenodd" d="M23.9054 303.393H31.6208C33.1241 303.393 34.6411 303.858 35.0817 305.494L36.2428 309.811L40.9267 314.364C42.2193 314.203 45.8393 314.204 47.1225 314.364L51.6753 309.939L52.968 305.135C53.2695 304.013 54.4383 303.095 55.5638 303.095H65.0062C66.1334 303.095 67.3014 304.013 67.6028 305.135L69.9919 314.014C70.4701 315.794 67.7577 315.827 67.2705 314.014L65.1529 306.144V315.309H64.5305L63.5836 333H56.9598L56.0124 315.309H55.39V306.242C54.6922 308.834 53.9966 311.421 53.2992 314.014C52.8115 315.827 50.0996 315.794 50.5787 314.014L50.6374 313.793L47.8211 316.53V323.908H47.1788V333H44.6826V326.081C44.6826 325.218 43.3632 325.218 43.3632 326.081V333H40.8674V323.908H40.2247V316.529L37.2791 313.665L37.4699 314.373C37.949 316.153 35.2357 316.186 34.7484 314.373L32.6444 306.551V315.667H31.8177V332.642H28.4219V317.86C28.4219 316.997 27.1026 316.997 27.1026 317.86V332.642H23.7068V315.667H22.881V306.554L20.777 314.373C20.2893 316.186 17.5774 316.153 18.0565 314.373L20.4453 305.494C20.8855 303.859 22.4024 303.393 23.9052 303.393L23.9054 303.393ZM44.0247 306.55C46.0857 306.55 47.7572 308.214 47.7572 310.268C47.7572 312.32 46.0858 313.985 44.0247 313.985C41.9636 313.985 40.2922 312.321 40.2922 310.268C40.2922 308.214 41.9636 306.55 44.0247 306.55ZM60.2736 293C62.9218 293 65.07 295.14 65.07 297.777C65.07 300.416 62.9218 302.555 60.2736 302.555C57.6249 302.555 55.4767 300.416 55.4767 297.777C55.4767 295.14 57.6249 293 60.2736 293ZM27.7643 293.359C30.413 293.359 32.5612 295.498 32.5612 298.137C32.5612 300.775 30.413 302.915 27.7643 302.915C25.1156 302.915 22.9679 300.775 22.9679 298.137C22.9679 295.499 25.1153 293.359 27.7643 293.359Z" fill="white"/>
<rect width="88.4956" height="100" rx="13" transform="matrix(-1 0 0 1 1059 524)" fill="#30301A"/>
<path d="M1026.4 557.922L1016.31 554.232C1015.46 553.923 1014.54 553.923 1013.69 554.232L1003.6 557.922C1002.75 558.231 1002.75 559.511 1003.6 559.82L1005 560.332V562.006C1008.14 563.265 1011.47 563.905 1014.81 563.926H1015.18C1018.51 563.905 1021.84 563.265 1024.99 562.006V560.343L1026.39 559.831C1027.25 559.511 1027.25 558.242 1026.4 557.922L1026.4 557.922Z" fill="white"/>
<path d="M1015.56 565.931H1014.45C1011.91 565.888 1009.41 565.493 1007 564.8C1007.39 569.269 1010.82 575.987 1014.99 575.987C1019.17 575.987 1022.59 569.268 1022.98 564.8C1020.58 565.493 1018.09 565.877 1015.56 565.931Z" fill="white"/>
<path d="M1030.44 579.529L1022.6 575.871C1020.62 578.291 1018.04 579.998 1015 579.998C1011.97 579.998 1009.38 578.291 1007.4 575.871L999.559 579.529C998.312 580.03 997.384 580.926 997 582.013V594H1032.99V582.003C1032.62 580.925 1031.69 580.03 1030.44 579.528L1030.44 579.529ZM1001.77 583.24L1000.88 581.448L1006.26 578.793L1007.14 580.584L1001.77 583.24ZM1017.02 585.97H1017V591.984H1013.01V585.97H1012.99L1010.98 584.007L1012.99 581.939H1017.02L1019.02 584.007L1017.02 585.97ZM1028.24 583.24L1022.86 580.584L1023.75 578.793L1029.12 581.448L1028.24 583.24Z" fill="white"/>
<rect y="525" width="88.4956" height="100" rx="13" fill="#30301A"/>
<path fill-rule="evenodd" clip-rule="evenodd" d="M43.719 566.04C38.6229 566.04 34.5293 570.134 34.5293 575.23C34.5293 580.326 38.6229 584.419 43.719 584.419C48.815 584.419 52.9086 580.326 52.9086 575.23C52.9086 570.134 48.815 566.04 43.719 566.04ZM44.7471 572.549H46.1059L46.106 571.554L41.4515 571.554V572.542L42.9004 572.542C43.4409 572.542 43.8914 572.876 44.0865 573.347H41.4515V574.334H44.0865C43.8914 574.805 43.4334 575.132 42.9004 575.132H41.4515V576.325L43.8313 578.786L45.2051 578.786L42.6151 576.127H42.9004C43.9739 576.127 44.8673 575.36 45.0925 574.342H46.106V573.355H45.0925C45.0324 573.058 44.9123 572.785 44.7471 572.549Z" fill="white"/>
<path fill-rule="evenodd" clip-rule="evenodd" d="M17.2767 560.986C17.5691 561.445 18.0704 561.821 18.5716 562.03C19.3234 562.322 20.1589 562.364 20.9526 562.364C24.8791 562.364 31.1867 560.652 33.4419 559.983C33.9432 561.153 35.3217 562.239 38.6634 562.239C40.3286 562.239 41.9075 561.951 42.4426 561.853C42.5517 561.833 42.6174 561.821 42.6316 561.821C43.2581 561.696 43.8012 561.738 44.553 561.947C45.9383 562.331 47.1108 563.141 48.3319 563.985C48.4364 564.057 48.5412 564.13 48.6466 564.202L48.6477 564.203C50.0258 565.163 51.4039 566.124 53.1161 566.667C55.9147 567.502 58.5463 567.711 60.8855 567.251C61.836 567.075 62.7568 566.751 63.673 566.428C63.8439 566.368 64.0146 566.308 64.1854 566.249C65.1461 565.873 66.0652 565.539 67.0258 565.33C67.1171 565.312 67.2085 565.285 67.3032 565.258C67.4253 565.223 67.5531 565.186 67.6942 565.163C67.7944 565.138 67.8963 565.111 67.9982 565.084C68.4059 564.977 68.8137 564.87 69.1144 564.87C69.2397 564.87 69.2815 564.87 69.3233 564.912L70.4093 565.246V554.052C70.4093 553.383 69.8245 552.924 69.1145 552.924C68.8508 552.924 68.5612 553.002 68.2866 553.076L68.2866 553.076C68.2131 553.096 68.1407 553.115 68.0701 553.133C68.0042 553.149 67.9318 553.172 67.8632 553.194C67.7578 553.227 67.6612 553.258 67.6106 553.258L67.4436 553.3C66.0233 553.509 64.6031 553.718 63.2246 553.718C61.2614 553.718 51.4867 551.211 47.8948 550.251C47.1012 550.084 46.3492 550 45.5975 550C44.0102 550 43.133 550.376 43.0494 550.418C41.838 550.961 39.5824 551.587 39.5824 551.587C35.6976 552.673 20.5348 557.435 20.4097 557.477C18.3211 558.062 17.2351 558.814 17.0262 559.733C16.9426 560.192 17.0679 560.61 17.2768 560.986L17.2767 560.986ZM51.3571 552.821L51.5268 552.864H51.3571V552.821ZM63.9594 564.484L64.0171 564.465H63.9594V564.484ZM68.6967 563.158L68.6861 563.159V562.889H68.6904C68.6924 562.984 68.6945 563.073 68.6967 563.158Z" fill="white"/>
<path fill-rule="evenodd" clip-rule="evenodd" d="M70.8337 589.014C70.5413 588.555 70.04 588.179 69.5388 587.97C68.7869 587.678 67.9515 587.636 67.1578 587.636C63.2313 587.636 56.9236 589.348 54.6684 590.017C54.1672 588.847 52.7887 587.761 49.447 587.761C47.7817 587.761 46.2028 588.049 45.6678 588.147C45.5586 588.167 45.4929 588.179 45.4788 588.179C44.8522 588.304 44.3092 588.262 43.5573 588.053C42.1721 587.669 40.9996 586.859 39.7785 586.015C39.674 585.943 39.5691 585.87 39.4637 585.798L39.4627 585.797C38.0845 584.837 36.7064 583.876 34.9943 583.333C32.1956 582.498 29.564 582.289 27.2248 582.749C26.2744 582.925 25.3535 583.249 24.4374 583.572C24.2665 583.632 24.0957 583.692 23.925 583.751C22.9643 584.127 22.0452 584.461 21.0845 584.67C20.9932 584.688 20.9019 584.715 20.8071 584.742C20.6851 584.777 20.5572 584.814 20.4162 584.837C20.3159 584.862 20.214 584.889 20.1121 584.916C19.7044 585.023 19.2967 585.13 18.996 585.13C18.8706 585.13 18.8289 585.13 18.7871 585.088L17.701 584.754V595.948C17.701 596.617 18.2858 597.076 18.9959 597.076C19.2595 597.076 19.5491 596.998 19.8237 596.924L19.8238 596.924C19.8973 596.904 19.9697 596.885 20.0402 596.867C20.1061 596.851 20.1785 596.828 20.2472 596.806C20.3526 596.773 20.4491 596.742 20.4997 596.742L20.6668 596.7C22.087 596.491 23.5072 596.282 24.8857 596.282C26.8489 596.282 36.6237 598.789 40.2155 599.749C41.0092 599.916 41.7611 600 42.5129 600C44.1002 600 44.9773 599.624 45.061 599.582C46.2724 599.039 48.5279 598.413 48.5279 598.413C52.4127 597.327 67.5756 592.565 67.7007 592.523C69.7892 591.938 70.8753 591.186 71.0842 590.267C71.1677 589.808 71.0424 589.39 70.8336 589.014L70.8337 589.014ZM36.7534 597.179L36.5836 597.136H36.7534V597.179ZM24.1502 585.516L24.0932 585.535H24.1502V585.516ZM19.4136 586.842L19.4243 586.841V587.11H19.4199C19.4179 587.016 19.4158 586.927 19.4136 586.842Z" fill="white"/>
</svg>
