<svg width="89" height="100" viewBox="0 0 89 100" fill="none" xmlns="http://www.w3.org/2000/svg">
<rect width="88.4956" height="100" rx="13" fill="#30301A"/>
<path fill-rule="evenodd" clip-rule="evenodd" d="M36.3019 34.8875C36.8327 36.6935 37.0388 38.7488 36.2943 40.1117C33.5317 32.6356 29.5575 28.1962 23.0369 25.2295C19.7503 28.7082 20.1093 32.9407 21.8259 37.4531C20.9852 37.4288 20.1444 37.4045 19.3039 37.3798C23.3421 47.5708 28.9611 55.3332 40.2242 60.2142C38.29 60.2259 36.3554 60.2374 34.4203 60.2487C39.5618 64.473 46.336 67.6815 53.0263 67.004C36.7149 57.8977 26.2166 42.6371 24.4748 32.9256C24.5817 33.2337 24.689 33.5407 24.8004 33.845C25.3358 35.4714 26.007 37.0883 26.7953 38.6873C32.1636 50.2421 40.9467 59.114 54.6121 66.7019C54.6403 66.7189 54.6677 66.7369 54.6965 66.7537C54.6994 66.7535 54.7017 66.7526 54.7038 66.7521C58.2211 68.7009 62.0562 70.5654 66.2441 72.3684L66.984 70.6492C62.9114 68.8956 59.182 67.0845 55.7604 65.1943C56.8737 61.7627 56.638 56.188 52.5776 52.1394C52.6495 54.1976 52.4026 54.5118 51.6007 55.9655C48.7767 48.0588 44.2096 40.0396 36.302 34.8887L36.3019 34.8875Z" fill="white"/>
</svg>
