<svg width="52" height="52" viewBox="0 0 52 52" fill="none" xmlns="http://www.w3.org/2000/svg">
<rect x="1" y="1" width="50" height="50" rx="4" stroke="#F7E600" stroke-width="2"/>
<path d="M37.2684 15.6989C37.2684 14.2632 36.1263 13.1211 34.6905 13.1211H32.1779V11.9137C32.1779 11.4242 31.7537 11 31.2642 11H29.5674C29.0779 11 28.6537 11.4242 28.6537 11.9137V13.1211H19.6147V11.9137C19.6147 11.4242 19.1905 11 18.7011 11H17.0042C16.5147 11 16.0905 11.4242 16.0905 11.9137V13.1211H13.5779C12.1421 13.1211 11 14.2632 11 15.6989V18.7011H37.2684V15.6989Z" fill="#F7E600"/>
<path d="M37.3011 29.7633V20.2349H11.0327V34.2012C11.0327 35.8328 12.1748 37.1707 13.6106 37.1707H27.7727C28.5232 39.9443 31.0685 42.0001 34.0706 42.0001C37.6927 42.0001 40.6296 39.0633 40.6296 35.4412C40.5969 33.0264 39.259 30.9054 37.3011 29.7633ZM31.1338 21.8664H35.6369V25.3254H31.1338V21.8664ZM35.6369 26.9896V29.1107C35.1148 28.9801 34.5927 28.9149 34.038 28.9149C32.9938 28.9149 31.9822 29.1759 31.1011 29.6001V26.957H35.6369V26.9896ZM24.9664 21.8664H29.4696V25.3254H24.9664V21.8664ZM24.9664 26.9896H29.4696V30.4159H24.9664V26.9896ZM17.1675 35.5391H13.578C13.0559 35.5391 12.6317 34.9517 12.6317 34.2338V32.0801H17.1348V35.5391H17.1675ZM17.1675 30.4159H12.6643V26.9896H17.1675V30.4159ZM17.1675 25.3254H12.6643V21.8664H17.1675V25.3254ZM23.3348 35.5391H18.8317V32.0801H23.3348V35.5391ZM23.3348 30.4159H18.8317V26.9896H23.3348V30.4159ZM23.3348 25.3254H18.8317V21.8664H23.3348V25.3254ZM24.9664 35.5391V32.0801H28.458C27.8706 33.0591 27.5117 34.2338 27.5117 35.4738C27.5117 35.5064 27.5117 35.5064 27.5117 35.5391H24.9664ZM34.0706 40.3685C31.3622 40.3685 29.1759 38.1822 29.1759 35.4738C29.1759 32.7654 31.3622 30.5791 34.0706 30.5791C36.779 30.5791 38.9653 32.7654 38.9653 35.4738C38.9653 38.1822 36.779 40.3685 34.0706 40.3685Z" fill="#F7E600"/>
<path d="M35.3106 33.7442L33.3853 35.6695L32.6348 34.9189C32.3085 34.5926 31.7864 34.5926 31.4601 34.9189C31.1338 35.2452 31.1338 35.7673 31.4601 36.0937L32.798 37.4316C32.9611 37.5947 33.1569 37.66 33.3853 37.66C33.6138 37.66 33.8095 37.5621 33.9727 37.4316L36.4853 34.9189C36.8116 34.5926 36.8116 34.0705 36.4853 33.7442C36.159 33.4505 35.6369 33.4505 35.3106 33.7442Z" fill="#F7E600"/>
</svg>
