<svg width="1004" height="982" viewBox="0 0 1004 982" fill="none" xmlns="http://www.w3.org/2000/svg">
<rect width="251" height="982" fill="#F63838"/>
<rect x="251" width="251" height="982" fill="#00C9FF"/>
<rect x="502" width="251" height="982" fill="#8FD82F"/>
<rect x="753" width="251" height="982" fill="#FEED01"/>
<path d="M128.981 887.936C143.721 786.441 109.557 287.254 90.2183 45.2296C90.0922 43.6505 91.2215 42.3248 92.7895 42.0999L342.189 6.33144C343.548 6.13652 344.859 6.865 345.365 8.14139C366.018 60.2356 374.039 150.91 375.777 196.235C375.877 198.841 379.097 200.032 381.007 198.254C562.162 29.6186 800.074 138.944 899.628 217.123C900.961 218.169 901.09 220.068 899.992 221.358L751.697 395.507C750.725 396.649 749.008 396.864 747.74 396.063C557.305 275.738 432.911 401.899 393.918 481.145C393.638 481.714 393.555 482.306 393.664 482.931C410.828 581.302 393.125 801.435 381.809 902.259C381.632 903.839 380.26 904.931 378.673 904.844L131.853 891.186C130.066 891.087 128.723 889.707 128.981 887.936Z" fill="white"/>
<path d="M161.897 933.492C180.546 839.579 159.92 328.197 147.276 84.2448L402.702 54.9169C423.563 109.925 428.692 209.709 428.649 252.725C616.749 81.1473 857.252 201.759 953.991 283.512L797.031 457.667C608.172 329.104 479.183 453.726 438.295 532.107C453.11 631.363 428.54 855.127 414.403 954.602L161.897 933.492Z" stroke="white" stroke-width="15" stroke-linejoin="round"/>
<path d="M656.7 644.61C660.089 638.483 669.48 626.713 679.93 628.652" stroke="black" stroke-width="14" stroke-linecap="round" stroke-linejoin="round"/>
<path d="M765.504 643.136C771.337 649.803 783.104 666.736 783.504 681.136" stroke="black" stroke-width="14" stroke-linecap="round" stroke-linejoin="round"/>
<path d="M791.004 700.636C797.671 711.136 815.604 726.436 834.004 703.636" stroke="black" stroke-width="14" stroke-linecap="round" stroke-linejoin="round"/>
<path d="M829.504 653.136C833.504 658.303 840.304 672.636 835.504 688.636" stroke="black" stroke-width="14" stroke-linecap="round" stroke-linejoin="round"/>
<path d="M862.504 593.136C867.504 597.136 877.704 608.936 878.504 624.136" stroke="black" stroke-width="14" stroke-linecap="round" stroke-linejoin="round"/>
<path d="M702.004 527.136C672.404 561.936 636.671 628.969 622.504 658.136C612.337 635.969 589.304 587.236 578.504 569.636C565.004 547.636 506.504 502.136 527.504 420.636C544.304 355.436 626.837 342.469 666.004 344.136C800.004 399.636 739.004 483.636 702.004 527.136Z" stroke="black" stroke-width="20"/>
<path d="M628.004 422.136C607.204 414.536 590.504 434.136 590.504 451.636C593.004 475.136 603.204 489.536 628.004 487.136C652.804 484.736 663.504 468.136 662.004 451.636C661.004 444.136 648.804 429.736 628.004 422.136Z" stroke="black" stroke-width="20"/>
<path d="M708.523 619.503C716.309 617.867 734.22 617.11 743.585 627.17" stroke="black" stroke-width="14" stroke-linecap="round" stroke-linejoin="round"/>
<path d="M822.004 639.636C819.671 634.136 814.004 622.536 810.004 620.136" stroke="black" stroke-width="14" stroke-linecap="round" stroke-linejoin="round"/>
<path d="M799.504 605.136C796.504 599.636 792.904 585.336 802.504 572.136" stroke="black" stroke-width="14" stroke-linecap="round" stroke-linejoin="round"/>
<path d="M821.504 567.136C827.671 566.136 842.404 566.936 852.004 578.136" stroke="black" stroke-width="14" stroke-linecap="round" stroke-linejoin="round"/>
</svg>
