<svg width="15" height="20" viewBox="0 0 15 20" fill="none" xmlns="http://www.w3.org/2000/svg">
<path fill-rule="evenodd" clip-rule="evenodd" d="M12.7692 7.38462C12.7692 8.85051 12.1663 10.3772 10.9104 12.2697C9.97758 13.6756 8.79668 15.127 7.4222 16.799C7.17917 16.4929 6.94279 16.1968 6.71299 15.909L6.71219 15.908C5.60705 14.5237 4.65442 13.3305 3.84894 12.1396C2.59021 10.2787 2 8.83572 2 7.38462C2 4.41077 4.41077 2 7.38462 2C10.3585 2 12.7692 4.41077 12.7692 7.38462ZM14.7692 7.38462C14.7692 11.0117 12.0923 14.2714 8.6862 18.4113L8.66933 18.4318L8.66921 18.4319C8.25075 18.9406 7.82135 19.4625 7.38462 20C6.956 19.4395 6.53446 18.9011 6.12338 18.3815C5.81755 17.9949 5.51752 17.6187 5.22469 17.2516L5.22435 17.2511C2.23766 13.5064 0 10.7008 0 7.38462C0 3.30621 3.30621 0 7.38462 0C11.463 0 14.7692 3.30621 14.7692 7.38462ZM8.46154 7.38462C8.46154 7.97938 7.97938 8.46154 7.38462 8.46154C6.78985 8.46154 6.30769 7.97938 6.30769 7.38462C6.30769 6.78985 6.78985 6.30769 7.38462 6.30769C7.97938 6.30769 8.46154 6.78985 8.46154 7.38462ZM10.4615 7.38462C10.4615 9.08395 9.08395 10.4615 7.38462 10.4615C5.68528 10.4615 4.30769 9.08395 4.30769 7.38462C4.30769 5.68528 5.68528 4.30769 7.38462 4.30769C9.08395 4.30769 10.4615 5.68528 10.4615 7.38462Z" fill="#302C00"/>
</svg>
