<svg width="89" height="100" viewBox="0 0 89 100" fill="none" xmlns="http://www.w3.org/2000/svg">
<rect width="88.4956" height="100" rx="13" transform="matrix(-1 0 0 1 89 0)" fill="#30301A"/>
<path d="M47.3427 26.9214C47.3427 27.9825 46.3863 28.8428 45.2067 28.8428C44.0272 28.8428 43.0708 27.9824 43.0708 26.9214C43.0708 25.8604 44.0272 25 45.2067 25C46.3863 25 47.3427 25.8604 47.3427 26.9214Z" fill="white"/>
<path d="M31.2922 30.9575C31.2931 30.5433 31.1115 30.146 30.7867 29.8526C30.4619 29.5595 30.0205 29.3943 29.5604 29.394C29.1003 29.3937 28.6586 29.5581 28.3331 29.8508C28.008 30.1436 27.8254 30.5407 27.8257 30.9545C27.826 31.3686 28.0096 31.7654 28.3354 32.0576C28.6615 32.3498 29.1033 32.5132 29.5637 32.5123C30.0221 32.5123 30.4616 32.3483 30.7857 32.0567C31.1098 31.7651 31.2922 31.3698 31.2922 30.9575Z" fill="white"/>
<path d="M63.0832 31.6408C63.0832 32.5017 62.3072 33.1999 61.3498 33.1999C60.3928 33.1999 59.6167 32.5018 59.6167 31.6408C59.6167 30.7797 60.3927 30.0815 61.3498 30.0815C62.3072 30.0815 63.0832 30.7796 63.0832 31.6408Z" fill="white"/>
<path fill-rule="evenodd" clip-rule="evenodd" d="M25.2139 56.2144L43.1763 73.8463L35.0291 56.2144H25.2145" fill="white"/>
<path fill-rule="evenodd" clip-rule="evenodd" d="M36.6284 56.2144L45.3097 75.0003L54.1598 56.2144H36.6284Z" fill="white"/>
<path fill-rule="evenodd" clip-rule="evenodd" d="M47.2428 74.3008L65.6685 56.2134H55.7644L47.2422 74.3008" fill="white"/>
<path fill-rule="evenodd" clip-rule="evenodd" d="M58.6416 46.7036H47.021L54.9884 54.4573L58.6416 46.7036Z" fill="white"/>
<path fill-rule="evenodd" clip-rule="evenodd" d="M53.6346 55.025L45.4416 47.0527L37.25 55.025H53.6346Z" fill="white"/>
<path fill-rule="evenodd" clip-rule="evenodd" d="M43.8621 46.7036H32.2344L35.8417 54.5093L43.8619 46.7036" fill="white"/>
<path fill-rule="evenodd" clip-rule="evenodd" d="M30.9817 47.4561L25 55.0248H34.479L30.9814 47.4561" fill="white"/>
<path fill-rule="evenodd" clip-rule="evenodd" d="M65.883 55.0252L59.8945 47.4478L56.3247 55.0252H65.8829" fill="white"/>
<path fill-rule="evenodd" clip-rule="evenodd" d="M45.6894 31.0278L50.8423 38.4932L51.353 39.2277L60.3887 33.7589L57.9733 44.09V44.4277H57.8943L57.8919 44.4379C57.8779 44.4345 57.8638 44.4311 57.8497 44.4277H32.9528C32.9387 44.4311 32.9246 44.4345 32.9105 44.4379L32.9082 44.4277H32.8688V44.2588L30.4233 33.7589L39.4782 39.2277L45.1323 31.0278L45.4133 30.6167L45.6894 31.0278Z" fill="white"/>
</svg>
