<svg width="20" height="15" viewBox="0 0 20 15" fill="none" xmlns="http://www.w3.org/2000/svg">
<path d="M17.4999 0H2.49998C1.12195 0 0 1.12195 0 2.49998V12.4999C0 13.8779 1.12195 14.9999 2.49998 14.9999H17.4999C18.8781 14.9999 20 13.8779 20 12.4999L19.9999 2.49998C19.9999 1.12195 18.8781 0.000150292 17.4999 0.000150292L17.4999 0ZM17.2407 1.24984L10.0001 8.49039L2.75958 1.24984H17.2407ZM18.75 12.4998C18.75 13.1902 18.1906 13.7496 17.5001 13.7496H2.50026C1.80978 13.7496 1.25042 13.1902 1.25042 12.4998L1.25013 2.49983C1.25013 2.2217 1.34382 1.96559 1.50021 1.75912L9.55993 9.81884C9.68181 9.93764 9.84115 10.0002 10.0005 10.0002C10.1598 10.0002 10.3192 9.93764 10.441 9.81575L18.5008 1.75942C18.657 1.9656 18.7508 2.22171 18.7508 2.49998L18.75 12.4998Z" fill="#191900"/>
</svg>
