<svg width="18" height="18" viewBox="0 0 18 18" fill="none" xmlns="http://www.w3.org/2000/svg">
<path d="M17.204 12.0884L15.4826 10.3669C14.9731 9.85435 14.2798 9.56705 13.5571 9.56894H13.5543C12.8312 9.56771 12.1376 9.85601 11.629 10.3698L10.9956 11.0053C9.13449 10.3317 7.66906 8.86614 6.99543 7.00504L7.63113 6.37157H7.63093C8.14307 5.86145 8.43114 5.16831 8.43177 4.44539C8.4324 3.72246 8.14533 3.0289 7.63381 2.51778L5.91247 0.796361C5.40154 0.286654 4.70967 0.000210232 3.98799 1.10389e-07C3.26657 -0.000205073 2.57424 0.285634 2.06309 0.794943L1.13177 1.72573H1.13156C0.22461 2.63498 -0.173028 3.93469 0.0701249 5.19599C0.637902 8.37245 2.12692 11.3121 4.3518 13.6492C6.68868 15.8741 9.62826 17.3632 12.8046 17.931C13.0462 17.9768 13.2913 17.9998 13.5371 18C14.5635 18.0018 15.5484 17.5953 16.2748 16.8704L17.2047 15.9382C17.7142 15.427 18.0002 14.7347 18 14.0132C17.9998 13.2915 17.7136 12.5994 17.2041 12.0884L17.204 12.0884ZM16.1641 14.8979L15.2333 15.8309C14.667 16.392 13.8602 16.6372 13.0774 16.4859C10.1914 15.9734 7.51939 14.6254 5.39147 12.6091C3.37528 10.4814 2.02741 7.80917 1.51483 4.92289C1.36279 4.13987 1.6084 3.33264 2.1706 2.76688L3.10276 1.83552V1.83531C3.33771 1.60118 3.65594 1.46965 3.98755 1.46986C4.31934 1.46986 4.63758 1.60159 4.87233 1.83614L6.59368 3.55756C6.82883 3.79272 6.96097 4.1116 6.96076 4.44422C6.96035 4.77664 6.82781 5.09549 6.59225 5.33004L5.65063 6.26797C5.47827 6.43992 5.40214 6.68596 5.44749 6.92523C5.78892 8.28283 6.5032 9.51771 7.51006 10.4903C8.48267 11.497 9.71746 12.2115 11.075 12.553C11.3142 12.5996 11.5609 12.5232 11.732 12.3496L12.6699 11.408V11.4082C12.9042 11.1722 13.2231 11.0394 13.5555 11.0396H13.5569C13.8893 11.039 14.208 11.1712 14.4425 11.4067L16.1638 13.1282C16.3982 13.3631 16.5297 13.6814 16.5297 14.0132C16.5297 14.3448 16.3982 14.663 16.1638 14.898L16.1641 14.8979Z" fill="#817800"/>
</svg>
