<svg width="89" height="100" viewBox="0 0 89 100" fill="none" xmlns="http://www.w3.org/2000/svg">
<rect width="88.4956" height="100" rx="13" fill="#30301A"/>
<path fill-rule="evenodd" clip-rule="evenodd" d="M23.9054 40.3926H31.6208C33.1241 40.3926 34.6411 40.8577 35.0817 42.4936L36.2428 46.8114L40.9267 51.3638C42.2193 51.2031 45.8393 51.2035 47.1225 51.3638L51.6753 46.9388L52.968 42.1347C53.2695 41.0129 54.4383 40.0949 55.5638 40.0949H65.0062C66.1334 40.0949 67.3014 41.0129 67.6028 42.1347L69.9919 51.0139C70.4701 52.7944 67.7577 52.8268 67.2705 51.0139L65.1529 43.1441V52.3091H64.5305L63.5836 69.9999H56.9598L56.0124 52.3091H55.39V43.2417C54.6922 45.8344 53.9966 48.4208 53.2992 51.0139C52.8115 52.8268 50.0996 52.7944 50.5787 51.0139L50.6374 50.7929L47.8211 53.53V60.9083H47.1788V70H44.6826V63.0815C44.6826 62.218 43.3632 62.218 43.3632 63.0815V70H40.8674V60.9083H40.2247V53.5288L37.2791 50.6646L37.4699 51.3727C37.949 53.1532 35.2357 53.1856 34.7484 51.3727L32.6444 43.5511V52.6671H31.8177V69.6422H28.4219V54.8603C28.4219 53.9968 27.1026 53.9968 27.1026 54.8603V69.6422H23.7068V52.6671H22.881V43.5539L20.777 51.3729C20.2893 53.1857 17.5774 53.1533 18.0565 51.3729L20.4453 42.4937C20.8855 40.8585 22.4024 40.3927 23.9052 40.3927L23.9054 40.3926ZM44.0247 43.5499C46.0857 43.5499 47.7572 45.2139 47.7572 47.2676C47.7572 49.3204 46.0858 50.9853 44.0247 50.9853C41.9636 50.9853 40.2922 49.3205 40.2922 47.2676C40.2922 45.2139 41.9636 43.5499 44.0247 43.5499ZM60.2736 30C62.9218 30 65.07 32.1397 65.07 34.7774C65.07 37.4156 62.9218 39.5553 60.2736 39.5553C57.6249 39.5553 55.4767 37.4156 55.4767 34.7774C55.4767 32.1397 57.6249 30 60.2736 30ZM27.7643 30.3593C30.413 30.3593 32.5612 32.4982 32.5612 35.1367C32.5612 37.7749 30.413 39.9146 27.7643 39.9146C25.1156 39.9146 22.9679 37.7749 22.9679 35.1367C22.9679 32.4985 25.1153 30.3593 27.7643 30.3593Z" fill="white"/>
</svg>
