<svg width="484" height="674" viewBox="0 0 484 674" fill="none" xmlns="http://www.w3.org/2000/svg">
<path d="M2 81C54.4207 40.2135 199.765 -13.4645 341.778 63.6122C483.79 140.689 491.097 264.012 476.999 316.039C482.559 365.496 483.552 454.777 432.323 482.717C378.102 512.288 129.712 524.627 100.523 467.302C71.3345 409.976 74.3129 540.524 135.669 607.966C197.025 675.409 289.953 633.016 309.61 673" stroke="black" stroke-width="4" stroke-dasharray="8 20"/>
<path d="M300.501 0C292.64 0 286 6.70451 286 14.6411C286 22.1433 291.781 29.7755 299.948 39.7381C300.084 39.9039 300.287 40 300.5 40C300.713 40 300.916 39.9039 301.052 39.7381C309.219 29.7747 315 22.1426 315 14.6411C315 6.70473 308.36 0 300.499 0H300.501ZM300.501 21.6939C298.648 21.6939 296.871 20.9505 295.561 19.6278C294.251 18.305 293.515 16.5108 293.515 14.64C293.515 12.7691 294.251 10.9752 295.561 9.65222C296.871 8.32944 298.648 7.58644 300.501 7.58644C302.353 7.58644 304.13 8.32951 305.44 9.65222C306.75 10.9753 307.486 12.7692 307.486 14.64C307.485 16.5103 306.748 18.3034 305.438 19.6258C304.129 20.9483 302.353 21.6919 300.5 21.694L300.501 21.6939Z" fill="black"/>
<path d="M394.648 482.862L389.057 482.834C388.698 482.832 388.377 483.03 388.196 483.328C388.015 483.627 388.013 484.026 388.191 484.327L389.537 486.69C390.012 487.531 390.868 488.034 391.826 488.039C392.784 488.044 393.646 487.55 394.129 486.713L395.499 484.364C395.68 484.066 395.682 483.666 395.504 483.366C395.326 483.066 394.987 482.864 394.648 482.862ZM392.397 485.706C392.216 486.005 391.936 486.043 391.816 486.043C391.697 486.042 391.417 486.001 391.239 485.7L390.744 484.839L392.881 484.85L392.397 485.706Z" fill="black"/>
<path d="M407.526 482.929L401.936 482.9C401.576 482.898 401.256 483.096 401.075 483.395C400.893 483.693 400.891 484.093 401.069 484.393L402.415 486.756C402.89 487.597 403.746 488.101 404.704 488.106C405.663 488.111 406.524 487.616 407.008 486.78L408.377 484.431C408.559 484.132 408.561 483.733 408.382 483.432C408.204 483.132 407.886 482.931 407.526 482.929ZM405.295 485.773C405.114 486.071 404.834 486.11 404.715 486.109C404.595 486.109 404.316 486.067 404.137 485.767L403.643 484.906L405.779 484.917L405.295 485.773Z" fill="black"/>
<path d="M391.266 430.073L393.861 430.086L393.711 439.889L395.708 439.899L395.858 430.096L399.432 430.114L403.066 430.173L402.916 439.936L404.913 439.946L405.063 430.143L407.539 430.156C408.098 430.159 408.539 429.722 408.542 429.163C408.545 428.604 408.108 428.162 407.549 428.159L399.442 428.118L394.87 428.054C394.77 428.054 394.67 428.073 394.59 428.093L391.276 428.076C390.717 428.073 390.275 428.51 390.273 429.069C390.27 429.628 390.726 430.07 391.266 430.073Z" fill="black"/>
<path d="M409.399 441.167L389.312 441.064C386.517 441.049 384.229 443.314 384.215 446.109L384.059 476.539C384.044 479.335 386.309 481.622 389.104 481.637L409.211 481.74C412.006 481.754 414.294 479.49 414.308 476.694L414.464 446.264C414.459 443.469 412.194 441.181 409.399 441.167ZM392.921 469.415C392.918 469.974 392.476 470.411 391.917 470.409C391.358 470.406 390.921 469.964 390.924 469.405L391.04 446.783C391.043 446.224 391.484 445.787 392.043 445.79C392.602 445.793 393.039 446.234 393.037 446.793L392.921 469.415ZM400.184 474.285C400.181 474.844 399.739 475.281 399.18 475.278C398.621 475.275 398.184 474.834 398.187 474.275L398.303 451.652C398.306 451.093 398.747 450.656 399.306 450.659C399.866 450.662 400.303 451.103 400.3 451.663L400.184 474.285ZM407.496 469.49C407.494 470.049 407.052 470.486 406.493 470.483C405.934 470.48 405.497 470.039 405.5 469.48L405.616 446.858C405.619 446.299 406.06 445.862 406.619 445.864C407.178 445.867 407.615 446.309 407.612 446.868L407.496 469.49Z" fill="black"/>
<path d="M362.865 141.734C361.343 141.758 359.893 142.384 358.831 143.473C357.769 144.564 357.182 146.03 357.198 147.551C357.214 149.073 357.832 150.527 358.917 151.595C360.001 152.662 361.464 153.257 362.985 153.249C364.507 153.241 365.964 152.631 367.038 151.552C368.111 150.474 368.713 149.014 368.713 147.492C368.703 145.952 368.081 144.48 366.984 143.4C365.886 142.319 364.404 141.72 362.865 141.734ZM362.865 151.891C361.701 151.876 360.592 151.4 359.778 150.569C358.965 149.737 358.514 148.617 358.524 147.454C358.534 146.29 359.005 145.178 359.833 144.361C360.661 143.544 361.779 143.088 362.942 143.093C364.106 143.098 365.22 143.564 366.041 144.388C366.862 145.212 367.323 146.328 367.323 147.492C367.313 148.666 366.838 149.788 366.002 150.612C365.167 151.437 364.038 151.897 362.865 151.891H362.865Z" fill="black"/>
<path d="M362.865 144.756C362.142 144.768 361.454 145.066 360.95 145.584C360.446 146.102 360.167 146.799 360.175 147.522C360.183 148.245 360.477 148.935 360.992 149.442C361.508 149.949 362.203 150.232 362.926 150.227C363.649 150.223 364.34 149.934 364.85 149.421C365.36 148.908 365.646 148.215 365.647 147.492C365.641 146.76 365.345 146.06 364.824 145.547C364.302 145.034 363.597 144.749 362.865 144.756ZM362.865 148.876C362.307 148.868 361.809 148.526 361.601 148.009C361.392 147.49 361.515 146.898 361.913 146.507C362.31 146.115 362.904 146 363.419 146.215C363.934 146.431 364.269 146.934 364.269 147.492C364.262 148.261 363.635 148.88 362.865 148.876Z" fill="black"/>
<path d="M393.123 144.756C392.4 144.766 391.71 145.063 391.205 145.58C390.699 146.098 390.42 146.795 390.426 147.518C390.433 148.241 390.726 148.932 391.241 149.44C391.756 149.948 392.452 150.231 393.175 150.227C393.898 150.224 394.591 149.935 395.101 149.422C395.611 148.909 395.898 148.215 395.898 147.492C395.893 146.761 395.598 146.062 395.077 145.549C394.557 145.036 393.854 144.751 393.123 144.756ZM393.123 148.876C392.565 148.868 392.066 148.526 391.858 148.008C391.65 147.49 391.774 146.898 392.171 146.507C392.568 146.115 393.162 146 393.677 146.215C394.192 146.431 394.527 146.934 394.527 147.492C394.52 148.261 393.892 148.88 393.123 148.876Z" fill="black"/>
<path d="M352.604 140.649C352.812 140.649 353.209 140.103 353.209 139.239C353.209 138.374 352.812 137.829 352.604 137.829C352.396 137.829 352 138.381 352 139.239C352 140.096 352.396 140.649 352.604 140.649Z" fill="black"/>
<path d="M402.781 139.239C402.781 140.104 403.177 140.65 403.385 140.65C403.593 140.65 403.989 140.104 403.989 139.239C403.989 138.375 403.593 137.829 403.385 137.829C403.177 137.829 402.781 138.382 402.781 139.239Z" fill="black"/>
<path d="M401.389 139.239C401.389 137.712 402.234 136.516 403.339 136.484L403.338 136.483C402.398 135.027 400.814 134.112 399.082 134.027C396.411 133.806 393.941 133.377 393.883 131.876H393.883C393.902 128.96 392.816 126.146 390.841 124C388.955 121.943 386.296 120.765 383.505 120.75H372.093C366.374 120.75 361.695 125.741 361.695 131.876C361.695 132.351 361.539 133.605 356.899 134.027C355.174 134.128 353.597 135.039 352.649 136.483C353.728 136.529 354.599 137.718 354.599 139.239C354.599 140.759 353.728 142.007 352.649 142.007V142.007C352.438 142.001 352.23 141.952 352.038 141.865V145.445C352.045 146.179 352.342 146.88 352.864 147.395C353.387 147.91 354.092 148.198 354.826 148.194H354.956C354.932 147.959 354.922 147.722 354.923 147.486C354.923 144.635 356.445 142 358.914 140.574C361.383 139.149 364.425 139.149 366.894 140.574C369.363 142 370.884 144.635 370.884 147.486V148.194H385.246V147.486C385.246 144.635 386.767 142 389.236 140.574C391.705 139.149 394.747 139.149 397.217 140.574C399.686 142 401.207 144.635 401.207 147.486C401.219 147.722 401.219 147.958 401.207 148.194H401.343C402.052 148.161 402.721 147.857 403.213 147.346C403.705 146.835 403.982 146.155 403.988 145.445V141.865C403.796 141.952 403.588 142.001 403.377 142.007C402.279 142.007 401.389 140.792 401.389 139.239L401.389 139.239ZM376.941 132.507H363.417V131.856C363.417 126.657 367.317 122.459 372.08 122.459H376.934L376.941 132.507ZM378.482 145.543H378.481C378.447 145.896 378.15 146.165 377.796 146.165C377.441 146.165 377.144 145.896 377.11 145.543V135.646C377.144 135.293 377.441 135.024 377.796 135.024C378.15 135.024 378.447 135.293 378.481 135.646L378.482 145.543ZM392.174 132.507H378.644V122.434H383.499C388.256 122.434 392.142 126.645 392.168 131.831L392.174 132.507Z" fill="black"/>
<path d="M393.124 141.742C391.584 141.726 390.103 142.324 389.005 143.403C387.908 144.482 387.285 145.954 387.275 147.493C387.273 148.023 387.347 148.55 387.496 149.059C387.983 150.673 389.143 151.997 390.679 152.693C392.214 153.39 393.975 153.39 395.51 152.693C397.045 151.997 398.205 150.673 398.693 149.059C398.847 148.549 398.923 148.019 398.921 147.486C398.91 145.957 398.295 144.494 397.208 143.417C396.122 142.341 394.653 141.738 393.124 141.742H393.124ZM397.406 148.695C397.038 149.935 396.15 150.955 394.973 151.491C393.796 152.027 392.444 152.027 391.267 151.491C390.09 150.955 389.203 149.935 388.834 148.695C388.726 148.306 388.669 147.904 388.666 147.499C388.666 145.906 389.515 144.435 390.894 143.639C392.274 142.842 393.973 142.842 395.352 143.639C396.732 144.435 397.582 145.906 397.582 147.499C397.581 147.904 397.522 148.307 397.406 148.695Z" fill="black"/>
<path d="M300.342 609.598L295.841 604.04C295.628 603.775 295.304 603.621 294.965 603.621H279.365V600.126C279.365 599.507 278.861 599 278.239 599H272.981C272.358 599 271.855 599.507 271.855 600.126V603.621H260.756C260.133 603.621 259.631 604.128 259.631 604.747V615.693C259.631 616.316 260.133 616.817 260.756 616.817H271.854V619.688L261.19 619.689C260.849 619.689 260.528 619.843 260.315 620.108L257.251 623.891C256.913 624.311 256.916 624.913 257.262 625.323L260.328 628.989C260.541 629.249 260.857 629.394 261.191 629.394H271.855V646.75H269.138C268.515 646.75 268.012 647.255 268.012 647.876C268.012 648.499 268.515 649 269.138 649H282.083C282.706 649 283.207 648.499 283.207 647.876C283.207 647.255 282.705 646.75 282.083 646.75H279.366V629.394H284.494C285.115 629.394 285.618 628.894 285.618 628.268V620.815C285.618 620.194 285.115 619.689 284.494 619.689H279.366V616.818H294.966C295.299 616.818 295.617 616.673 295.83 616.414L300.334 611.027C300.677 610.617 300.682 610.015 300.343 609.598L300.342 609.598ZM274.105 601.252H277.114V603.621H274.105V601.252ZM277.113 646.705H274.104V644.99H274.467C274.931 644.99 275.31 644.612 275.31 644.144C275.31 643.679 274.93 643.3 274.467 643.3H274.104V642.831H275.032C275.499 642.831 275.876 642.451 275.876 641.985C275.876 641.52 275.498 641.142 275.032 641.142H274.104V629.393H277.113V646.705ZM283.367 627.142H261.717L259.584 624.591L261.728 621.939H283.366V627.142L283.367 627.142ZM277.113 619.688H274.104V616.816H277.113V619.688ZM294.439 614.567H261.881V605.873H294.431L298.011 610.296L294.439 614.567Z" fill="black"/>
<path d="M269.045 609.66C269.135 609.513 269.252 609.398 269.395 609.315C269.542 609.232 269.708 609.19 269.895 609.19V609.925H269.71C269.49 609.925 269.323 609.977 269.21 610.08C269.1 610.183 269.045 610.363 269.045 610.62V612H268.345V609.23H269.045V609.66ZM271.596 612.045C271.33 612.045 271.09 611.987 270.876 611.87C270.663 611.75 270.495 611.582 270.371 611.365C270.251 611.148 270.191 610.898 270.191 610.615C270.191 610.332 270.253 610.082 270.376 609.865C270.503 609.648 270.675 609.482 270.891 609.365C271.108 609.245 271.35 609.185 271.616 609.185C271.883 609.185 272.125 609.245 272.341 609.365C272.558 609.482 272.728 609.648 272.851 609.865C272.978 610.082 273.041 610.332 273.041 610.615C273.041 610.898 272.976 611.148 272.846 611.365C272.72 611.582 272.546 611.75 272.326 611.87C272.11 611.987 271.866 612.045 271.596 612.045ZM271.596 611.435C271.723 611.435 271.841 611.405 271.951 611.345C272.065 611.282 272.155 611.188 272.221 611.065C272.288 610.942 272.321 610.792 272.321 610.615C272.321 610.352 272.251 610.15 272.111 610.01C271.975 609.867 271.806 609.795 271.606 609.795C271.406 609.795 271.238 609.867 271.101 610.01C270.968 610.15 270.901 610.352 270.901 610.615C270.901 610.878 270.966 611.082 271.096 611.225C271.23 611.365 271.396 611.435 271.596 611.435ZM273.375 610.605C273.375 610.325 273.43 610.077 273.54 609.86C273.653 609.643 273.805 609.477 273.995 609.36C274.188 609.243 274.403 609.185 274.64 609.185C274.847 609.185 275.027 609.227 275.18 609.31C275.337 609.393 275.462 609.498 275.555 609.625V609.23H276.26V612H275.555V611.595C275.465 611.725 275.34 611.833 275.18 611.92C275.023 612.003 274.842 612.045 274.635 612.045C274.402 612.045 274.188 611.985 273.995 611.865C273.805 611.745 273.653 611.577 273.54 611.36C273.43 611.14 273.375 610.888 273.375 610.605ZM275.555 610.615C275.555 610.445 275.522 610.3 275.455 610.18C275.388 610.057 275.298 609.963 275.185 609.9C275.072 609.833 274.95 609.8 274.82 609.8C274.69 609.8 274.57 609.832 274.46 609.895C274.35 609.958 274.26 610.052 274.19 610.175C274.123 610.295 274.09 610.438 274.09 610.605C274.09 610.772 274.123 610.918 274.19 611.045C274.26 611.168 274.35 611.263 274.46 611.33C274.573 611.397 274.693 611.43 274.82 611.43C274.95 611.43 275.072 611.398 275.185 611.335C275.298 611.268 275.388 611.175 275.455 611.055C275.522 610.932 275.555 610.785 275.555 610.615ZM276.764 610.605C276.764 610.325 276.819 610.077 276.929 609.86C277.042 609.643 277.195 609.477 277.389 609.36C277.582 609.243 277.797 609.185 278.034 609.185C278.214 609.185 278.385 609.225 278.549 609.305C278.712 609.382 278.842 609.485 278.939 609.615V608.3H279.649V612H278.939V611.59C278.852 611.727 278.73 611.837 278.574 611.92C278.417 612.003 278.235 612.045 278.029 612.045C277.795 612.045 277.582 611.985 277.389 611.865C277.195 611.745 277.042 611.577 276.929 611.36C276.819 611.14 276.764 610.888 276.764 610.605ZM278.944 610.615C278.944 610.445 278.91 610.3 278.844 610.18C278.777 610.057 278.687 609.963 278.574 609.9C278.46 609.833 278.339 609.8 278.209 609.8C278.079 609.8 277.959 609.832 277.849 609.895C277.739 609.958 277.649 610.052 277.579 610.175C277.512 610.295 277.479 610.438 277.479 610.605C277.479 610.772 277.512 610.918 277.579 611.045C277.649 611.168 277.739 611.263 277.849 611.33C277.962 611.397 278.082 611.43 278.209 611.43C278.339 611.43 278.46 611.398 278.574 611.335C278.687 611.268 278.777 611.175 278.844 611.055C278.91 610.932 278.944 610.785 278.944 610.615ZM281.032 609.63C281.122 609.503 281.246 609.398 281.402 609.315C281.562 609.228 281.744 609.185 281.947 609.185C282.184 609.185 282.397 609.243 282.587 609.36C282.781 609.477 282.932 609.643 283.042 609.86C283.156 610.073 283.212 610.322 283.212 610.605C283.212 610.888 283.156 611.14 283.042 611.36C282.932 611.577 282.781 611.745 282.587 611.865C282.397 611.985 282.184 612.045 281.947 612.045C281.744 612.045 281.564 612.003 281.407 611.92C281.254 611.837 281.129 611.732 281.032 611.605V613.32H280.332V609.23H281.032V609.63ZM282.497 610.605C282.497 610.438 282.462 610.295 282.392 610.175C282.326 610.052 282.236 609.958 282.122 609.895C282.012 609.832 281.892 609.8 281.762 609.8C281.636 609.8 281.516 609.833 281.402 609.9C281.292 609.963 281.202 610.057 281.132 610.18C281.066 610.303 281.032 610.448 281.032 610.615C281.032 610.782 281.066 610.927 281.132 611.05C281.202 611.173 281.292 611.268 281.402 611.335C281.516 611.398 281.636 611.43 281.762 611.43C281.892 611.43 282.012 611.397 282.122 611.33C282.236 611.263 282.326 611.168 282.392 611.045C282.462 610.922 282.497 610.775 282.497 610.605ZM283.541 610.605C283.541 610.325 283.596 610.077 283.706 609.86C283.819 609.643 283.971 609.477 284.161 609.36C284.354 609.243 284.569 609.185 284.806 609.185C285.013 609.185 285.193 609.227 285.346 609.31C285.503 609.393 285.628 609.498 285.721 609.625V609.23H286.426V612H285.721V611.595C285.631 611.725 285.506 611.833 285.346 611.92C285.189 612.003 285.008 612.045 284.801 612.045C284.568 612.045 284.354 611.985 284.161 611.865C283.971 611.745 283.819 611.577 283.706 611.36C283.596 611.14 283.541 610.888 283.541 610.605ZM285.721 610.615C285.721 610.445 285.688 610.3 285.621 610.18C285.554 610.057 285.464 609.963 285.351 609.9C285.238 609.833 285.116 609.8 284.986 609.8C284.856 609.8 284.736 609.832 284.626 609.895C284.516 609.958 284.426 610.052 284.356 610.175C284.289 610.295 284.256 610.438 284.256 610.605C284.256 610.772 284.289 610.918 284.356 611.045C284.426 611.168 284.516 611.263 284.626 611.33C284.739 611.397 284.859 611.43 284.986 611.43C285.116 611.43 285.238 611.398 285.351 611.335C285.464 611.268 285.554 611.175 285.621 611.055C285.688 610.932 285.721 610.785 285.721 610.615ZM288.64 612L288.07 611.14L287.565 612H286.815L287.72 610.61L286.805 609.23H287.595L288.16 610.085L288.67 609.23H289.42L288.51 610.61L289.43 612H288.64Z" fill="black"/>
</svg>
