<svg width="52" height="52" viewBox="0 0 52 52" fill="none" xmlns="http://www.w3.org/2000/svg">
<rect x="1" y="1" width="50" height="50" rx="4" stroke="#F7E600" stroke-width="2"/>
<path d="M40.9756 38.2323H36.3904V29.6463L37.2316 28.4906V28.4901C37.2352 28.4731 37.2352 28.4556 37.2316 28.439V28.4005C37.2513 28.358 37.2621 28.3123 37.2639 28.2657V25.1511C37.2639 24.9383 37.091 24.7654 36.8782 24.7654H35.9921V22.4987L36.7048 21.3747C36.7424 21.3129 36.7626 21.2417 36.7626 21.1691V19.9941C36.7626 19.7813 36.5901 19.6089 36.3774 19.6089H35.9343V15.6593C36.1471 15.6593 36.3196 15.4868 36.3196 15.274V13.8034C36.3196 13.5906 36.1471 13.4182 35.9343 13.4182V11.7997C35.9334 11.4355 35.8138 11.0817 35.5939 10.7914L35.0863 10.1172L35.0868 9.38525C35.0868 9.17246 34.9143 9 34.7015 9C34.4883 9 34.3158 9.17246 34.3158 9.38525V10.1302L33.8343 10.8111V10.8106C33.6363 11.0929 33.531 11.4293 33.5324 11.7742V13.4312V13.4307C33.3433 13.4536 33.2004 13.613 33.1986 13.8034V15.274C33.2004 15.4644 33.3433 15.6239 33.5324 15.6463V19.6085H33.0826L33.0831 19.609C32.8703 19.609 32.6978 19.7814 32.6978 19.9942V20.7324H19.6487V19.9942C19.6487 19.7814 19.4762 19.609 19.2635 19.609H18.8204V15.6594C19.0332 15.6594 19.2057 15.4869 19.2057 15.2741V13.8035C19.2057 13.5907 19.0332 13.4182 18.8204 13.4182V11.7998C18.8249 11.4379 18.712 11.084 18.4992 10.7915L17.9917 10.1173V9.38532C17.9917 9.17253 17.8192 9.00007 17.6065 9.00007C17.3937 9.00007 17.2212 9.17253 17.2212 9.38532V10.1303L16.7397 10.8112V10.8107C16.5399 11.0925 16.4319 11.4289 16.4315 11.7743V13.4312V13.4308C16.242 13.4536 16.0991 13.6131 16.0973 13.8035V15.2741C16.0991 15.4645 16.242 15.624 16.4315 15.6464V19.6086H15.9884L15.988 19.609C15.7752 19.609 15.6027 19.7815 15.6027 19.9943V21.176C15.6032 21.2481 15.6229 21.3194 15.6605 21.3812L16.3732 22.4984V24.7656H15.4872C15.2744 24.7656 15.1019 24.9385 15.1019 25.1513V28.2659C15.1037 28.3349 15.1261 28.4021 15.166 28.4585L15.9302 29.6398V38.2325H11.435C11.3252 38.2182 11.2146 38.2518 11.1312 38.3253C11.0479 38.3983 11 38.504 11 38.6147C11 38.7253 11.0479 38.831 11.1312 38.904C11.2146 38.9775 11.3252 39.0111 11.435 38.9968H40.9758C41.0855 39.0111 41.1962 38.9775 41.2795 38.904C41.3628 38.831 41.4107 38.7253 41.4107 38.6147C41.4107 38.504 41.3628 38.3983 41.2795 38.3253C41.1962 38.2518 41.0855 38.2182 40.9758 38.2325L40.9756 38.2323ZM22.1216 38.2323H19.2762V37.5129H22.1149L22.1216 38.2323ZM22.1216 36.7424H19.2762V29.6463L20.0019 28.6509H22.1149V36.7424L22.1216 36.7424ZM18.692 29.1325H16.5728L16.2453 28.651H19.0711L18.692 29.1325ZM16.7268 29.903H18.4994V36.7425H16.7268V29.903ZM18.8716 22.6591H33.4746V24.7529H31.9462V23.9434C31.9605 23.8337 31.9269 23.723 31.8539 23.6397C31.7804 23.5564 31.6752 23.5085 31.5641 23.5085C31.4534 23.5085 31.3477 23.5564 31.2747 23.6397C31.2017 23.723 31.1681 23.8337 31.182 23.9434V24.7524L29.8077 24.7529V23.9434C29.8077 23.7306 29.6352 23.5582 29.4224 23.5582C29.2096 23.5582 29.0372 23.7306 29.0372 23.9434V24.7524L27.6629 24.7529V23.9434C27.6629 23.7306 27.4904 23.5582 27.2776 23.5582C27.0649 23.5582 26.8924 23.7306 26.8924 23.9434V24.7524L25.5181 24.7529V23.9434C25.5181 23.7306 25.3456 23.5582 25.1329 23.5582C24.9201 23.5582 24.7476 23.7306 24.7476 23.9434V24.7524L23.3733 24.7529V23.9434C23.3733 23.7306 23.2009 23.5582 22.9881 23.5582C22.7753 23.5582 22.6028 23.7306 22.6028 23.9434V24.7524L21.2285 24.7529V23.9434C21.2424 23.8337 21.2088 23.723 21.1358 23.6397C21.0628 23.5564 20.9571 23.5085 20.8464 23.5085C20.7353 23.5085 20.6301 23.5564 20.5566 23.6397C20.4836 23.723 20.45 23.8337 20.4643 23.9434V24.7524L18.8714 24.7529L18.8716 22.6591ZM19.514 21.5159H32.8716L33.1157 21.8882L19.257 21.8886L19.514 21.5159ZM35.6204 36.7427H33.8415V29.9033H35.6204V36.7427ZM35.8385 29.1329H33.6615L33.334 28.6513H36.166L35.8385 29.1329ZM32.2486 25.5367V26.6154H20.188V25.5367H32.2486ZM20.188 27.3859H32.2233V27.8804H20.188V27.3859ZM22.8789 28.6701L29.532 28.6706V32.196C28.6105 31.3839 27.5103 30.8006 26.321 30.4942C26.2619 30.4812 26.2005 30.4812 26.1414 30.4942C24.9512 30.7818 23.8492 31.3547 22.9304 32.1638L22.8789 28.6701ZM30.2962 28.6701H32.4025L33.0448 29.6592V36.7428H30.2961V28.6513L30.2962 28.6701ZM30.2962 37.5325H33.0703V38.2519H30.2962V37.5325ZM33.8409 37.5325H35.6197V38.2582H33.8413L33.8409 37.5325ZM36.5381 25.5556V27.8997H32.9934V25.5368H36.5381V25.5556ZM34.2454 24.7851L34.2459 22.6596H35.196V24.7534L34.2454 24.7851ZM35.1637 19.6475L34.3037 19.6479V15.6598H35.196L35.1637 19.6475ZM35.562 14.2272L35.5624 14.8892H33.9694V14.1891L35.562 14.2272ZM34.464 11.2921L34.7145 10.9391L34.9841 11.2921V11.2926C35.1015 11.4507 35.1646 11.642 35.1642 11.8386V13.4571H34.3037V11.7745C34.3046 11.5891 34.3601 11.4081 34.464 11.254V11.2921ZM33.4687 20.3798H35.9925V21.0607L35.4594 21.902H34.0081L33.4687 21.0607L33.4687 20.3798ZM18.0561 19.6093H17.2148V15.6597H18.0494L18.0561 19.6093ZM18.4476 14.189V14.8892H16.8484V14.189H18.4476ZM17.3559 11.254L17.6063 10.901L17.8697 11.254C17.9889 11.4112 18.0539 11.6029 18.0561 11.8V13.4184H17.2148V11.7744C17.205 11.5912 17.252 11.4093 17.3497 11.2539L17.3559 11.254ZM16.3543 21.0607V20.3798H18.8781V21.0607L18.345 21.9019H16.8869L16.3543 21.0607ZM17.1248 22.6594H18.1072V24.7532H17.1248V22.6594ZM16.7395 25.5237H19.4175V27.8678H15.8723V25.5366L16.7395 25.5237ZM16.7395 37.5006H18.4991V38.22L16.7266 38.2195L16.7395 37.5006ZM22.8917 33.8721C22.8917 32.1958 25.6852 31.3738 26.2183 31.2327C27.2266 31.5023 29.5448 32.4269 29.5448 33.8721V38.2195H22.8788L22.8917 33.8721Z" fill="#F7E600"/>
<path d="M20.7075 32.228C20.4947 32.228 20.3223 32.4005 20.3223 32.6133V33.2171C20.3223 33.4299 20.4947 33.6024 20.7075 33.6024C20.9203 33.6024 21.0932 33.4299 21.0932 33.2171V32.6133C21.0932 32.5111 21.0524 32.413 20.9803 32.3409C20.9078 32.2683 20.8101 32.228 20.7075 32.228Z" fill="#F7E600"/>
<path d="M20.7075 29.814C20.4947 29.814 20.3223 29.9864 20.3223 30.1992V30.8031V30.8026C20.3223 31.0154 20.4947 31.1879 20.7075 31.1879C20.9203 31.1879 21.0932 31.0154 21.0932 30.8026V30.1988V30.1992C21.0932 30.0971 21.0524 29.999 20.9803 29.9264C20.9078 29.8543 20.8101 29.814 20.7075 29.814Z" fill="#F7E600"/>
<path d="M20.7075 34.6484C20.4947 34.6484 20.3223 34.8209 20.3223 35.0337V35.6375V35.6371C20.3223 35.8499 20.4947 36.0223 20.7075 36.0223C20.9203 36.0223 21.0932 35.8499 21.0932 35.6371V35.0332V35.0337C21.0932 34.8209 20.9203 34.6484 20.7075 34.6484Z" fill="#F7E600"/>
<path d="M31.6704 33.5764C31.8832 33.5764 32.0557 33.4039 32.0557 33.1911V32.6133C32.0557 32.4005 31.8832 32.228 31.6704 32.228C31.4576 32.228 31.2852 32.4005 31.2852 32.6133V33.2171C31.2986 33.4196 31.467 33.5768 31.6704 33.5764Z" fill="#F7E600"/>
<path d="M31.6704 31.1879C31.8832 31.1879 32.0557 31.0154 32.0557 30.8026V30.1988V30.1992C32.0557 29.9864 31.8832 29.814 31.6704 29.814C31.4576 29.814 31.2852 29.9864 31.2852 30.1992V30.8031V30.8026C31.2852 30.9047 31.3255 31.0028 31.398 31.075C31.4702 31.1475 31.5683 31.1879 31.6704 31.1879Z" fill="#F7E600"/>
<path d="M31.6704 36.0223C31.8832 36.0223 32.0557 35.8499 32.0557 35.6371V35.0332V35.0337C32.0557 34.8209 31.8832 34.6484 31.6704 34.6484C31.4576 34.6484 31.2852 34.8209 31.2852 35.0337V35.6375V35.6371C31.2852 35.8499 31.4576 36.0223 31.6704 36.0223Z" fill="#F7E600"/>
</svg>
