<svg width="89" height="100" viewBox="0 0 89 100" fill="none" xmlns="http://www.w3.org/2000/svg">
<rect width="88.4956" height="100" rx="13" transform="matrix(-1 0 0 1 89 0)" fill="#30301A"/>
<path d="M71.2498 41.403C71.2498 42.2763 70.5419 42.9841 69.6686 42.9841C68.7953 42.9841 68.0874 42.2763 68.0874 41.403C68.0874 40.5297 68.7953 39.8218 69.6686 39.8218C70.5419 39.8218 71.2498 40.5297 71.2498 41.403Z" fill="white"/>
<path d="M65.9127 31.8175L64.8257 29.3472L63.838 31.8175L61.6641 32.7067L63.9366 33.6951L64.925 35.9677L65.8142 33.6951L68.0867 32.7067L65.9127 31.8175Z" fill="white"/>
<path d="M71.0517 49.308C70.7553 48.1225 69.7669 47.8261 69.7669 47.8261L65.2218 48.3196L61.0716 38.636C60.6767 37.549 59.3919 35.7708 56.6252 35.4736H32.3152C29.5484 35.77 28.2636 37.5491 27.8687 38.636L23.8172 48.3196L19.4692 47.8254C19.4692 47.8254 18.4808 48.1218 18.1844 49.3073C17.888 50.4929 17.5916 52.6668 20.3583 53.3589L21.8402 53.5567C19.9626 57.0156 18.0851 63.3395 23.2236 68.5766C23.3222 68.6752 24.6069 69.6636 25.299 69.8614V72.9245C25.299 74.11 26.2875 74.9999 27.3745 74.9999H30.1413C31.3268 74.9999 32.2167 74.0115 32.2167 72.9245V70.0592H56.8214V72.9245C56.8214 74.11 57.8098 74.9999 58.8968 74.9999H61.7621C62.9477 74.9999 63.8375 74.0115 63.8375 72.9245V69.8614C64.6281 69.6636 65.3195 69.1694 65.8136 68.5766C71.0508 63.3395 69.3709 57.114 67.5919 53.4581L68.8767 53.3595C71.6435 52.6675 71.3471 50.5927 71.0506 49.308L71.0517 49.308ZM31.1309 39.9209L31.2294 39.8223C31.328 39.7237 31.5258 39.1303 32.6128 38.9331H56.3281C57.4151 39.0317 57.7115 39.6252 57.7115 39.7237L61.763 49.3087L27.0793 49.2101L31.1309 39.9209ZM29.4511 61.4623C27.7714 61.4623 26.3881 60.079 26.3881 58.3993C26.3881 56.7196 27.7714 55.3362 29.4511 55.3362C31.1309 55.3362 32.5142 56.7196 32.5142 58.3993C32.5142 60.079 31.1308 61.4623 29.4511 61.4623ZM59.1941 61.4623C57.5144 61.4623 56.1311 60.079 56.1311 58.3993C56.1311 56.7196 57.5144 55.3362 59.1941 55.3362C60.8739 55.3362 62.2572 56.7196 62.2572 58.3993C62.2572 60.079 60.8738 61.4623 59.1941 61.4623Z" fill="white"/>
<path d="M22.0396 42.3912C22.0396 43.2639 21.3317 43.9717 20.4591 43.9717C19.5858 43.9717 18.8779 43.2639 18.8779 42.3912C18.8779 41.5179 19.5858 40.8101 20.4591 40.8101C21.3317 40.8101 22.0396 41.5179 22.0396 42.3912Z" fill="white"/>
<path d="M53.1668 29.0514C53.1668 29.9247 52.4589 30.6326 51.5856 30.6326C50.7123 30.6326 50.0044 29.9247 50.0044 29.0514C50.0044 28.1781 50.7123 27.4702 51.5856 27.4702C52.4589 27.4702 53.1668 28.1781 53.1668 29.0514Z" fill="white"/>
<path d="M24.6094 33.597L26.882 32.6086L24.7081 31.7194L23.6211 29.1499L22.6327 31.7194L20.4595 32.6086L22.732 33.597L23.7198 35.8696L24.6094 33.597Z" fill="white"/>
<path d="M40.3204 29.3478L42.593 28.4587L40.419 27.5695L39.3321 25L38.3443 27.5695L36.1704 28.4587L38.443 29.3478L39.4314 31.7196L40.3204 29.3478Z" fill="white"/>
</svg>
