<svg width="35" height="35" viewBox="0 0 35 35" fill="none" xmlns="http://www.w3.org/2000/svg">
<rect x="3.5" y="3.5" width="28" height="28" rx="6" fill="url(#paint0_radial_42_14)"/>
<rect x="3.5" y="3.5" width="28" height="28" rx="6" fill="url(#paint1_radial_42_14)"/>
<rect x="3.5" y="3.5" width="28" height="28" rx="6" fill="url(#paint2_radial_42_14)"/>
<path d="M25.6668 11.083C25.6668 12.0495 24.8833 12.833 23.9168 12.833C22.9503 12.833 22.1668 12.0495 22.1668 11.083C22.1668 10.1165 22.9503 9.33301 23.9168 9.33301C24.8833 9.33301 25.6668 10.1165 25.6668 11.083Z" fill="white"/>
<path fill-rule="evenodd" clip-rule="evenodd" d="M17.5002 23.333C20.7218 23.333 23.3335 20.7213 23.3335 17.4997C23.3335 14.278 20.7218 11.6663 17.5002 11.6663C14.2785 11.6663 11.6668 14.278 11.6668 17.4997C11.6668 20.7213 14.2785 23.333 17.5002 23.333ZM17.5002 20.9997C19.4332 20.9997 21.0002 19.4327 21.0002 17.4997C21.0002 15.5667 19.4332 13.9997 17.5002 13.9997C15.5672 13.9997 14.0002 15.5667 14.0002 17.4997C14.0002 19.4327 15.5672 20.9997 17.5002 20.9997Z" fill="white"/>
<path fill-rule="evenodd" clip-rule="evenodd" d="M5.8335 17.033C5.8335 13.1126 5.8335 11.1525 6.59645 9.65507C7.26756 8.33794 8.33843 7.26708 9.65556 6.59596C11.1529 5.83301 13.1131 5.83301 17.0335 5.83301H17.9668C21.8872 5.83301 23.8474 5.83301 25.3448 6.59596C26.6619 7.26708 27.7328 8.33794 28.4039 9.65507C29.1668 11.1525 29.1668 13.1126 29.1668 17.033V17.9663C29.1668 21.8867 29.1668 23.8469 28.4039 25.3443C27.7328 26.6614 26.6619 27.7323 25.3448 28.4034C23.8474 29.1663 21.8872 29.1663 17.9668 29.1663H17.0335C13.1131 29.1663 11.1529 29.1663 9.65556 28.4034C8.33843 27.7323 7.26756 26.6614 6.59645 25.3443C5.8335 23.8469 5.8335 21.8867 5.8335 17.9663V17.033ZM17.0335 8.16634H17.9668C19.9655 8.16634 21.3242 8.16816 22.3744 8.25396C23.3974 8.33754 23.9205 8.48904 24.2855 8.67498C25.1635 9.12239 25.8775 9.8363 26.3249 10.7144C26.5108 11.0793 26.6623 11.6025 26.7459 12.6254C26.8317 13.6756 26.8335 15.0343 26.8335 17.033V17.9663C26.8335 19.965 26.8317 21.3237 26.7459 22.3739C26.6623 23.3969 26.5108 23.92 26.3249 24.285C25.8775 25.1631 25.1635 25.877 24.2855 26.3244C23.9205 26.5103 23.3974 26.6618 22.3744 26.7454C21.3242 26.8312 19.9655 26.833 17.9668 26.833H17.0335C15.0348 26.833 13.6761 26.8312 12.6259 26.7454C11.6029 26.6618 11.0798 26.5103 10.7149 26.3244C9.83678 25.877 9.12287 25.1631 8.67547 24.285C8.48952 23.92 8.33803 23.3969 8.25445 22.3739C8.16864 21.3237 8.16683 19.965 8.16683 17.9663V17.033C8.16683 15.0343 8.16864 13.6756 8.25445 12.6254C8.33803 11.6025 8.48952 11.0793 8.67547 10.7144C9.12287 9.8363 9.83678 9.12239 10.7149 8.67498C11.0798 8.48904 11.6029 8.33754 12.6259 8.25396C13.6761 8.16816 15.0348 8.16634 17.0335 8.16634Z" fill="white"/>
<defs>
<radialGradient id="paint0_radial_42_14" cx="0" cy="0" r="1" gradientUnits="userSpaceOnUse" gradientTransform="translate(13.5 24.5) rotate(-55.3758) scale(25.5196)">
<stop stop-color="#B13589"/>
<stop offset="0.79309" stop-color="#C62F94"/>
<stop offset="1" stop-color="#8A3AC8"/>
</radialGradient>
<radialGradient id="paint1_radial_42_14" cx="0" cy="0" r="1" gradientUnits="userSpaceOnUse" gradientTransform="translate(12.5 32.5) rotate(-65.1363) scale(22.5942)">
<stop stop-color="#E0E8B7"/>
<stop offset="0.444662" stop-color="#FB8A2E"/>
<stop offset="0.71474" stop-color="#E2425C"/>
<stop offset="1" stop-color="#E2425C" stop-opacity="0"/>
</radialGradient>
<radialGradient id="paint2_radial_42_14" cx="0" cy="0" r="1" gradientUnits="userSpaceOnUse" gradientTransform="translate(2 4.5) rotate(-8.1301) scale(38.8909 8.31836)">
<stop offset="0.156701" stop-color="#406ADC"/>
<stop offset="0.467799" stop-color="#6A45BE"/>
<stop offset="1" stop-color="#6A45BE" stop-opacity="0"/>
</radialGradient>
</defs>
</svg>
