<svg width="150" height="62" viewBox="0 0 150 62" fill="none" xmlns="http://www.w3.org/2000/svg">
<path d="M0 45.2146H150V61.8514H0V45.2146Z" fill="white"/>
<path d="M0 0H37.5V45.2147H0V0Z" fill="#F63838"/>
<path d="M37.5 0H75V45.2147H37.5V0Z" fill="#00C9FF"/>
<path d="M75 0H112.5V45.2147H75V0Z" fill="#8FD82F"/>
<path d="M112.5 0H150V45.2147H112.5V0Z" fill="#FEED01"/>
<path d="M22.5956 35.0971C23.1312 31.7027 21.8721 15.3583 21.1567 7.40306C21.151 7.33923 21.197 7.28542 21.2606 7.27732L30.4935 6.10132C30.545 6.09476 30.5946 6.12152 30.6157 6.16895C31.3743 7.87553 31.6717 10.8297 31.7382 12.3275C31.7426 12.4274 31.8629 12.477 31.9401 12.4133C38.6402 6.88159 47.4315 10.4528 51.1336 13.0243C51.1934 13.0659 51.199 13.1491 51.1486 13.2017L45.6744 18.9109C45.6367 18.9503 45.5753 18.958 45.5277 18.9313C38.4764 14.9737 33.8676 19.1131 32.4167 21.7224C32.403 21.7469 32.399 21.7733 32.4044 21.8008C33.036 25.0389 32.384 32.2545 31.965 35.5772C31.9572 35.6389 31.9035 35.6816 31.8414 35.6785L22.7106 35.2298C22.6383 35.2262 22.5843 35.1686 22.5956 35.0971Z" fill="white"/>
<path fill-rule="evenodd" clip-rule="evenodd" d="M32.7086 7.40419C32.8378 7.39101 32.9601 7.46293 33.0109 7.58196C33.4148 8.52783 33.6594 9.83651 33.8041 11.0675C33.93 12.1382 35.2022 12.7572 36.18 12.2938C39.0256 10.9451 42.0233 10.818 44.7581 11.2982C48.3601 11.9306 51.5275 13.6185 53.3507 14.9868C53.4198 15.0387 53.4627 15.1182 53.4681 15.2046C53.4736 15.291 53.4412 15.3757 53.3793 15.4367L47.5614 21.1696C47.4639 21.2657 47.314 21.2837 47.1976 21.2133C43.7668 19.1391 40.9148 19.1232 38.7477 19.9087C37.262 20.4472 36.0817 21.3686 35.2495 22.2936C34.6145 22.9993 34.4589 23.9791 34.5009 24.9239C34.5706 26.4906 34.4761 28.4462 34.3126 30.383C34.0873 33.0508 33.7277 35.7183 33.4647 37.3617C33.4401 37.5153 33.3015 37.625 33.1466 37.6135L23.7872 36.9186C23.7013 36.9122 23.6226 36.8689 23.5714 36.7998C23.5203 36.7308 23.5017 36.6428 23.5206 36.5586C23.6851 35.8225 23.7679 34.2243 23.7862 32.0781C23.8044 29.9451 23.7591 27.3043 23.6775 24.5065C23.5143 18.9115 23.2062 12.6985 22.9719 8.68513C22.9626 8.52529 23.0815 8.38588 23.241 8.36961L32.7086 7.40419ZM27.4196 8.54168C25.278 8.76006 23.6821 10.6309 23.7916 12.7779C23.973 16.3377 24.1585 20.5626 24.2729 24.4852C24.3546 27.2862 24.4002 29.9354 24.3819 32.0792C24.3622 34.3891 26.1255 36.4948 28.4287 36.6658L29.2159 36.7242C31.3041 36.8793 33.1739 35.3971 33.4171 33.3154C33.5287 32.3602 33.6336 31.3484 33.719 30.3368C33.9437 27.6759 34.03 25.0522 33.7624 23.4599C33.7508 23.3909 33.764 23.3198 33.7996 23.2592C34.586 21.9203 36.2109 20.1962 38.5479 19.3491C40.2374 18.7367 42.2809 18.5893 44.6207 19.3543C46.2816 19.8973 48.1797 19.7269 49.4309 18.494C51.1449 16.8051 50.9131 13.9833 48.6997 13.0738C47.4627 12.5655 46.092 12.1376 44.6512 11.8847C41.1632 11.2723 37.2865 11.6874 33.8852 14.4427C33.7958 14.5151 33.6731 14.5301 33.5697 14.4812C33.4664 14.4323 33.4006 14.3282 33.4008 14.2136C33.4016 13.5162 33.355 12.3528 33.2125 11.1409C33.2065 11.0899 33.2003 11.0388 33.194 10.9878C32.9725 9.20169 31.3001 8.14599 29.5062 8.32891L27.4196 8.54168Z" fill="white"/>
<path d="M35.838 49.904C35.838 50.1983 36.27 50.3455 36.499 50.1606C36.6186 50.0641 36.7454 49.9771 36.8794 49.8997C36.9369 49.8652 36.9952 49.8331 37.0545 49.8034C37.6748 49.492 38.2681 50.0874 38.2681 50.7814V51.3855C38.2681 51.746 37.9759 52.0382 37.6154 52.0382C37.0229 52.0382 36.5786 52.1678 36.2823 52.427C35.9861 52.6769 35.838 53.1213 35.838 53.7601V56.1694C35.838 56.8251 35.3064 57.3567 34.6507 57.3567C33.9949 57.3567 33.4634 56.8251 33.4634 56.1694V50.7953C33.4634 50.1396 33.9949 49.608 34.6507 49.608H35.542C35.7055 49.608 35.838 49.7405 35.838 49.904Z" fill="black"/>
<path d="M42.9302 57.4677C42.1711 57.4677 41.486 57.3057 40.875 56.9817C40.2733 56.6577 39.7965 56.1948 39.4447 55.5931C39.1022 54.9913 38.9309 54.2878 38.9309 53.4823C38.9309 52.6862 39.1068 51.9872 39.4586 51.3855C39.8104 50.7745 40.2918 50.307 40.9028 49.983C41.5138 49.659 42.1989 49.4969 42.958 49.4969C43.7171 49.4969 44.4022 49.659 45.0132 49.983C45.6242 50.307 46.1056 50.7745 46.4574 51.3855C46.8092 51.9872 46.985 52.6862 46.985 53.4823C46.985 54.2785 46.8045 54.9821 46.4435 55.5931C46.0917 56.1948 45.6057 56.6577 44.9854 56.9817C44.3744 57.3057 43.6893 57.4677 42.9302 57.4677ZM42.9302 55.4126C43.3838 55.4126 43.768 55.2459 44.0828 54.9126C44.4068 54.5794 44.5688 54.1026 44.5688 53.4823C44.5688 52.8621 44.4114 52.3853 44.0967 52.052C43.7912 51.7188 43.4116 51.5521 42.958 51.5521C42.4951 51.5521 42.1109 51.7188 41.8054 52.052C41.4999 52.3761 41.3472 52.8528 41.3472 53.4823C41.3472 54.1026 41.4953 54.5794 41.7915 54.9126C42.097 55.2459 42.4766 55.4126 42.9302 55.4126Z" fill="black"/>
<path d="M47.7727 53.4685C47.7727 52.6723 47.9208 51.9734 48.217 51.3716C48.5225 50.7699 48.9345 50.307 49.4529 49.983C49.9713 49.659 50.5499 49.4969 51.1887 49.4969C51.7349 49.4969 52.2117 49.608 52.619 49.8302C52.7584 49.9046 52.887 49.9867 53.0046 50.0766C53.1985 50.2248 53.5772 50.0941 53.5772 49.85C53.5772 49.7164 53.6855 49.608 53.8192 49.608H54.7645C55.4202 49.608 55.9518 50.1396 55.9518 50.7953V56.1694C55.9518 56.8251 55.4202 57.3567 54.7645 57.3567H53.8258C53.6885 57.3567 53.5772 57.2454 53.5772 57.1081C53.5772 56.8598 53.201 56.7282 53.0039 56.8792C52.882 56.9726 52.7491 57.0577 52.6051 57.1345C52.1978 57.3567 51.721 57.4677 51.1748 57.4677C50.5453 57.4677 49.9713 57.3057 49.4529 56.9817C48.9345 56.6484 48.5225 56.1809 48.217 55.5792C47.9208 54.9682 47.7727 54.2646 47.7727 53.4685ZM53.5772 53.4823C53.5772 52.8899 53.4105 52.4224 53.0773 52.0798C52.7533 51.7373 52.3552 51.566 51.883 51.566C51.4109 51.566 51.0082 51.7373 50.6749 52.0798C50.3509 52.4131 50.1889 52.876 50.1889 53.4685C50.1889 54.0609 50.3509 54.5331 50.6749 54.8849C51.0082 55.2274 51.4109 55.3987 51.883 55.3987C52.3552 55.3987 52.7533 55.2274 53.0773 54.8849C53.4105 54.5423 53.5772 54.0748 53.5772 53.4823Z" fill="black"/>
<path d="M57.1975 53.4685C57.1975 52.6723 57.3456 51.9734 57.6419 51.3716C57.9474 50.7699 58.3594 50.307 58.8778 49.983C59.3962 49.659 59.9748 49.4969 60.6136 49.4969C61.1227 49.4969 61.5856 49.6034 62.0022 49.8163C62.3598 49.9951 63.002 49.7424 63.002 49.3426V47.9166C63.002 47.4549 63.3763 47.0807 63.8379 47.0807H64.1893C64.845 47.0807 65.3766 47.6123 65.3766 48.268V56.1694C65.3766 56.8251 64.845 57.3567 64.1893 57.3567H63.243C63.1099 57.3567 63.002 57.2488 63.002 57.1157C63.002 56.8713 62.6187 56.7409 62.4251 56.8899C62.3086 56.9795 62.1816 57.061 62.0439 57.1345C61.6365 57.3567 61.1598 57.4677 60.6136 57.4677C59.9748 57.4677 59.3962 57.3057 58.8778 56.9817C58.3594 56.6484 57.9474 56.1809 57.6419 55.5792C57.3456 54.9682 57.1975 54.2646 57.1975 53.4685ZM63.002 53.4823C63.002 52.8899 62.8354 52.4224 62.5021 52.0798C62.1781 51.7373 61.78 51.566 61.3079 51.566C60.8358 51.566 60.4331 51.7373 60.0998 52.0798C59.7758 52.4131 59.6138 52.876 59.6138 53.4685C59.6138 54.0609 59.7758 54.5331 60.0998 54.8849C60.4331 55.2274 60.8358 55.3987 61.3079 55.3987C61.78 55.3987 62.1781 55.2274 62.5021 54.8849C62.8354 54.5423 63.002 54.0748 63.002 53.4823Z" fill="black"/>
<path d="M69.4691 49.8566C69.4691 50.1049 69.8438 50.2352 70.0398 50.0828C70.1586 49.9905 70.2878 49.9063 70.4273 49.8302C70.8346 49.608 71.3114 49.4969 71.8576 49.4969C72.4963 49.4969 73.0749 49.659 73.5934 49.983C74.1118 50.307 74.5191 50.7699 74.8154 51.3716C75.1209 51.9734 75.2736 52.6723 75.2736 53.4685C75.2736 54.2646 75.1209 54.9682 74.8154 55.5792C74.5191 56.1809 74.1118 56.6484 73.5934 56.9817C73.0749 57.3057 72.4963 57.4677 71.8576 57.4677C71.3206 57.4677 70.8438 57.3567 70.4273 57.1345C70.0877 56.9493 69.4691 57.1881 69.4691 57.5749V59.9496C69.4691 60.5576 68.9762 61.0504 68.3683 61.0504H68.2818C67.6261 61.0504 67.0945 60.5189 67.0945 59.8631V50.7953C67.0945 50.1396 67.6261 49.608 68.2818 49.608H69.2205C69.3578 49.608 69.4691 49.7193 69.4691 49.8566ZM72.8574 53.4685C72.8574 52.876 72.6907 52.4131 72.3575 52.0798C72.0334 51.7373 71.6307 51.566 71.1493 51.566C70.6772 51.566 70.2745 51.7373 69.9412 52.0798C69.6172 52.4224 69.4552 52.8899 69.4552 53.4823C69.4552 54.0748 69.6172 54.5423 69.9412 54.8849C70.2745 55.2274 70.6772 55.3987 71.1493 55.3987C71.6215 55.3987 72.0242 55.2274 72.3575 54.8849C72.6907 54.5331 72.8574 54.0609 72.8574 53.4685Z" fill="black"/>
<path d="M76.0472 53.4685C76.0472 52.6723 76.1954 51.9734 76.4916 51.3716C76.7971 50.7699 77.2091 50.307 77.7275 49.983C78.2459 49.659 78.8245 49.4969 79.4633 49.4969C80.0095 49.4969 80.4863 49.608 80.8936 49.8302C81.033 49.9046 81.1615 49.9867 81.2792 50.0766C81.4731 50.2248 81.8518 50.0941 81.8518 49.85C81.8518 49.7164 81.9601 49.608 82.0938 49.608H83.039C83.6948 49.608 84.2263 50.1396 84.2263 50.7953V56.1694C84.2263 56.8251 83.6948 57.3567 83.039 57.3567H82.1003C81.9631 57.3567 81.8518 57.2454 81.8518 57.1081C81.8518 56.8598 81.4755 56.7282 81.2785 56.8792C81.1566 56.9726 81.0237 57.0577 80.8797 57.1345C80.4724 57.3567 79.9956 57.4677 79.4494 57.4677C78.8199 57.4677 78.2459 57.3057 77.7275 56.9817C77.2091 56.6484 76.7971 56.1809 76.4916 55.5792C76.1954 54.9682 76.0472 54.2646 76.0472 53.4685ZM81.8518 53.4823C81.8518 52.8899 81.6851 52.4224 81.3518 52.0798C81.0278 51.7373 80.6297 51.566 80.1576 51.566C79.6855 51.566 79.2828 51.7373 78.9495 52.0798C78.6255 52.4131 78.4635 52.876 78.4635 53.4685C78.4635 54.0609 78.6255 54.5331 78.9495 54.8849C79.2828 55.2274 79.6855 55.3987 80.1576 55.3987C80.6297 55.3987 81.0278 55.2274 81.3518 54.8849C81.6851 54.5423 81.8518 54.0748 81.8518 53.4823Z" fill="black"/>
<path d="M91.1015 57.3567C90.7416 57.3567 90.4047 57.1798 90.2002 56.8837L90.0767 56.7048C89.595 56.007 88.5511 56.0478 88.1254 56.781L88.0991 56.8263C87.9084 57.1546 87.5575 57.3567 87.1778 57.3567C86.3341 57.3567 85.8253 56.4224 86.2829 55.7136L87.1283 54.4041C87.5211 53.7958 87.5084 53.0107 87.0963 52.4154L86.344 51.3287C85.8405 50.6015 86.361 49.608 87.2455 49.608C87.6047 49.608 87.9411 49.7839 88.146 50.0789L88.2703 50.2577C88.7528 50.9521 89.7928 50.9113 90.2195 50.1813L90.2497 50.1296C90.4385 49.8066 90.7845 49.608 91.1586 49.608C91.9989 49.608 92.5005 50.5443 92.0349 51.2439L91.207 52.488C90.7964 53.105 90.804 53.9101 91.2262 54.5192L92.0015 55.6377C92.5049 56.364 91.9851 57.3567 91.1015 57.3567Z" fill="black"/>
<path d="M95.2188 57.4677C94.8022 57.4677 94.4597 57.3474 94.1912 57.1067C93.932 56.8567 93.8024 56.5512 93.8024 56.1902C93.8024 55.8199 93.932 55.5098 94.1912 55.2598C94.4597 55.0098 94.8022 54.8849 95.2188 54.8849C95.6262 54.8849 95.9594 55.0098 96.2186 55.2598C96.4871 55.5098 96.6214 55.8199 96.6214 56.1902C96.6214 56.5512 96.4871 56.8567 96.2186 57.1067C95.9594 57.3474 95.6262 57.4677 95.2188 57.4677Z" fill="black"/>
<path d="M99.2213 48.8026C98.8047 48.8026 98.4621 48.6823 98.1937 48.4416C97.9344 48.1916 97.8048 47.8861 97.8048 47.5251C97.8048 47.1548 97.9344 46.8493 98.1937 46.6086C98.4621 46.3586 98.8047 46.2336 99.2213 46.2336C99.6286 46.2336 99.9619 46.3586 100.221 46.6086C100.49 46.8493 100.624 47.1548 100.624 47.5251C100.624 47.8861 100.49 48.1916 100.221 48.4416C99.9619 48.6823 99.6286 48.8026 99.2213 48.8026ZM99.2143 49.608C99.87 49.608 100.402 50.1396 100.402 50.7953V56.1694C100.402 56.8251 99.87 57.3567 99.2143 57.3567C98.5586 57.3567 98.027 56.8251 98.027 56.1694V50.7953C98.027 50.1396 98.5586 49.608 99.2143 49.608Z" fill="black"/>
<path d="M106.844 49.5247C107.751 49.5247 108.473 49.821 109.01 50.4135C109.556 50.9967 109.829 51.8021 109.829 52.8297V56.1763C109.829 56.8282 109.301 57.3567 108.649 57.3567C107.997 57.3567 107.469 56.8282 107.469 56.1763V53.1491C107.469 52.6306 107.334 52.2279 107.066 51.941C106.798 51.654 106.436 51.5105 105.983 51.5105C105.529 51.5105 105.168 51.654 104.9 51.941C104.631 52.2279 104.497 52.6306 104.497 53.1491V56.1694C104.497 56.8251 103.965 57.3567 103.31 57.3567C102.654 57.3567 102.122 56.8251 102.122 56.1694V50.7953C102.122 50.1396 102.654 49.608 103.31 49.608H104.25C104.386 49.608 104.497 49.7186 104.497 49.8549C104.497 50.0961 104.848 50.2243 105.043 50.0824C105.173 49.9878 105.315 49.9037 105.469 49.8302C105.876 49.6266 106.335 49.5247 106.844 49.5247Z" fill="black"/>
<path fill-rule="evenodd" clip-rule="evenodd" d="M80.2081 31.1051C80.0284 31.2578 79.8816 31.4625 79.8063 31.5986C79.7043 31.7829 79.4723 31.8497 79.2879 31.7478C79.1036 31.6458 79.0368 31.4137 79.1388 31.2294C79.2482 31.0316 79.4495 30.7488 79.7141 30.5239C79.9725 30.3042 80.3576 30.086 80.8078 30.1695C81.0149 30.208 81.1517 30.407 81.1132 30.6141C81.0748 30.8212 80.8757 30.958 80.6686 30.9195C80.5495 30.8974 80.3941 30.947 80.2081 31.1051Z" fill="black"/>
<path fill-rule="evenodd" clip-rule="evenodd" d="M85.1493 31.0468C85.3078 30.9081 85.5488 30.9241 85.6875 31.0826C85.8636 31.2839 86.12 31.6285 86.3372 32.0293C86.5509 32.4237 86.7491 32.9132 86.7625 33.3937C86.7683 33.6042 86.6024 33.7797 86.3918 33.7855C86.1812 33.7914 86.0058 33.6254 85.9999 33.4149C85.9915 33.1107 85.8583 32.7466 85.6665 32.3927C85.4782 32.0453 85.2551 31.7469 85.1134 31.585C84.9747 31.4264 84.9908 31.1855 85.1493 31.0468Z" fill="black"/>
<path fill-rule="evenodd" clip-rule="evenodd" d="M86.5857 34.1449C86.7635 34.032 86.9992 34.0846 87.1121 34.2625C87.2678 34.5077 87.5384 34.7757 87.8316 34.8637C87.9677 34.9046 88.11 34.9078 88.2635 34.8514C88.4212 34.7934 88.617 34.6625 88.8362 34.3908C88.9685 34.2269 89.2086 34.2013 89.3726 34.3336C89.5365 34.4658 89.5621 34.706 89.4298 34.8699C89.1478 35.2193 88.8455 35.4501 88.5267 35.5673C88.2037 35.6861 87.891 35.6781 87.6121 35.5943C87.0753 35.4331 86.6757 34.9983 86.4682 34.6713C86.3553 34.4935 86.4079 34.2578 86.5857 34.1449Z" fill="black"/>
<path fill-rule="evenodd" clip-rule="evenodd" d="M88.6548 31.5772C88.8213 31.4482 89.0609 31.4787 89.1898 31.6453C89.4579 31.9915 89.8878 32.8982 89.5805 33.9226C89.52 34.1243 89.3073 34.2388 89.1056 34.1783C88.9038 34.1178 88.7893 33.9052 88.8499 33.7034C89.0656 32.9842 88.7545 32.329 88.5867 32.1122C88.4577 31.9457 88.4882 31.7061 88.6548 31.5772Z" fill="black"/>
<path fill-rule="evenodd" clip-rule="evenodd" d="M90.3883 28.3712C90.5199 28.2067 90.7599 28.18 90.9244 28.3116C91.2465 28.5693 91.8874 29.3034 91.9388 30.2785C91.9498 30.4888 91.7883 30.6683 91.5779 30.6794C91.3676 30.6905 91.1881 30.5289 91.177 30.3186C91.1411 29.6373 90.6706 29.0855 90.4478 28.9073C90.2834 28.7757 90.2567 28.5357 90.3883 28.3712Z" fill="black"/>
<path fill-rule="evenodd" clip-rule="evenodd" d="M75.5447 15.2553C77.1379 14.6104 78.8765 14.4502 80.0024 14.4981C80.0661 14.5008 80.1289 14.5147 80.1878 14.5391C82.0653 15.3167 83.32 16.218 84.0818 17.2113C84.8542 18.2184 85.0936 19.2866 84.9964 20.324C84.8081 22.3349 83.3543 24.1926 82.3558 25.3665C80.7923 27.2047 78.8709 30.8005 78.0992 32.3892C77.8981 32.8033 77.3058 32.7967 77.1139 32.3783C76.555 31.1596 75.3148 28.5388 74.7474 27.6141C74.6437 27.4452 74.4555 27.2219 74.2211 26.9438C73.0929 25.6054 70.8946 22.9974 71.9053 19.0747C72.4216 17.0712 73.9468 15.9021 75.5447 15.2553ZM75.9536 16.2654C74.5406 16.8373 73.3597 17.7976 72.9606 19.3466C72.1116 22.6416 73.7808 24.6686 74.9368 26.0725C75.2346 26.434 75.4983 26.7542 75.6761 27.0441C76.602 28.5529 78.8212 28.6404 79.7625 27.1412C80.346 26.2118 80.9542 25.3324 81.5257 24.6604C82.5433 23.4642 83.7592 21.8483 83.9115 20.2224C83.9846 19.4412 83.8119 18.6501 83.2171 17.8745C82.705 17.2068 81.8622 16.5281 80.5417 15.8904C80.0973 15.6757 79.6072 15.5675 79.1144 15.5936C78.1775 15.6431 77.0204 15.8336 75.9536 16.2654Z" fill="black"/>
<path fill-rule="evenodd" clip-rule="evenodd" d="M76.4109 20.8733C76.4757 21.4464 76.6258 21.8107 76.8255 22.0196C77.0049 22.2073 77.2985 22.3457 77.8564 22.2917C78.4164 22.2375 78.761 22.031 78.959 21.8002C79.121 21.6114 79.2097 21.3781 79.2225 21.1286C79.2279 21.0228 79.2059 20.9167 79.149 20.8274C79.0887 20.733 78.995 20.6172 78.8644 20.4931C78.6036 20.2453 78.2181 19.9855 77.7219 19.8042C77.3725 19.6765 77.0701 19.7679 76.8281 19.9871C76.5757 20.2157 76.4194 20.5628 76.4109 20.8733ZM76.0965 19.1795C76.5928 18.7298 77.312 18.4943 78.0959 18.7807C78.733 19.0135 79.2465 19.353 79.615 19.7032C79.7991 19.8781 79.9526 20.061 80.0677 20.2415C80.1782 20.4147 80.2734 20.6171 80.3015 20.8278L80.303 20.8391L80.304 20.8504C80.357 21.4334 80.1946 22.0335 79.786 22.5098C79.3751 22.9887 78.7526 23.2998 77.9614 23.3764C77.168 23.4531 76.5081 23.2646 76.0378 22.7726C75.5913 22.3055 75.3972 21.6468 75.3239 20.9574L75.3208 20.9287V20.8998C75.3208 20.2633 75.6177 19.6132 76.0965 19.1795Z" fill="black"/>
<path fill-rule="evenodd" clip-rule="evenodd" d="M83.1696 30.3942C82.8566 30.3534 82.55 30.3825 82.3745 30.4194C82.1683 30.4627 81.9661 30.3307 81.9228 30.1245C81.8795 29.9184 82.0115 29.7162 82.2176 29.6729C82.4662 29.6206 82.8597 29.5845 83.2683 29.6378C83.6725 29.6905 84.1451 29.8382 84.4856 30.204C84.6291 30.3582 84.6205 30.5995 84.4663 30.743C84.3121 30.8865 84.0707 30.8779 83.9272 30.7237C83.7575 30.5413 83.487 30.4356 83.1696 30.3942Z" fill="black"/>
<path fill-rule="evenodd" clip-rule="evenodd" d="M87.4987 29.8844C87.6071 29.7038 87.8414 29.6453 88.022 29.7536C88.143 29.8262 88.2396 29.9406 88.3074 30.0313C88.3821 30.1311 88.4539 30.2467 88.5184 30.3602C88.6476 30.5876 88.7629 30.8343 88.8307 30.9942C88.913 31.1881 88.8225 31.412 88.6286 31.4943C88.4347 31.5765 88.2108 31.486 88.1285 31.2921C88.0692 31.1524 87.9666 30.9332 87.8551 30.737C87.7993 30.6386 87.7451 30.553 87.6966 30.4882C87.6503 30.4262 87.6261 30.4066 87.6265 30.406C87.6266 30.4059 87.6276 30.4066 87.6296 30.4077C87.4489 30.2994 87.3904 30.0651 87.4987 29.8844Z" fill="black"/>
<path fill-rule="evenodd" clip-rule="evenodd" d="M87.6414 27.157C87.8117 27.2809 87.8494 27.5194 87.7255 27.6897C87.3148 28.2545 87.4719 28.8672 87.5884 29.0808C87.6893 29.2657 87.6212 29.4974 87.4362 29.5983C87.2513 29.6992 87.0196 29.631 86.9188 29.4461C86.7084 29.0604 86.4732 28.1148 87.1086 27.2411C87.2325 27.0707 87.471 27.0331 87.6414 27.157Z" fill="black"/>
<path fill-rule="evenodd" clip-rule="evenodd" d="M89.8245 28.0404C89.4211 27.5698 88.7776 27.5265 88.5133 27.5694C88.3054 27.6031 88.1095 27.4618 88.0758 27.2539C88.0421 27.046 88.1833 26.8501 88.3912 26.8164C88.7989 26.7503 89.761 26.7942 90.4037 27.544C90.5408 27.7039 90.5222 27.9447 90.3623 28.0818C90.2024 28.2189 89.9616 28.2004 89.8245 28.0404Z" fill="black"/>
</svg>
