<svg width="89" height="100" viewBox="0 0 89 100" fill="none" xmlns="http://www.w3.org/2000/svg">
<rect width="88.4956" height="100" rx="13" transform="matrix(-1 0 0 1 89 0)" fill="#30301A"/>
<path d="M56.4008 33.9218L46.3123 30.232C45.4591 29.9227 44.542 29.9227 43.6889 30.232L33.6003 33.9218C32.7472 34.2311 32.7472 35.5108 33.6003 35.8201L34.9973 36.332V38.0063C38.1433 39.2647 41.4706 39.9046 44.808 39.9259H45.1812C48.5085 39.9046 51.8358 39.2647 54.9919 38.0063V36.3427L56.3889 35.8308C57.2528 35.5109 57.2528 34.2418 56.3996 33.9219L56.4008 33.9218Z" fill="white"/>
<path d="M45.5552 41.9307H44.4462C41.9081 41.8881 39.4126 41.4935 37.0024 40.8003C37.3864 45.2686 40.8202 51.9867 44.99 51.9867C49.1704 51.9867 52.5936 45.2682 52.9776 40.8003C50.5782 41.4935 48.0933 41.8774 45.5552 41.9307Z" fill="white"/>
<path d="M60.4433 55.5285L52.605 51.8706C50.6214 54.2914 48.0407 55.9977 45.0014 55.9977C41.9727 55.9977 39.3812 54.2914 37.3977 51.8706L29.5594 55.5285C28.3117 56.0297 27.384 56.9255 27 58.0132V70.0002H62.992V58.0025C62.6187 56.9254 61.6909 56.0297 60.4432 55.5284L60.4433 55.5285ZM31.7669 59.2396L30.8818 57.448L36.2566 54.7927L37.1417 56.5843L31.7669 59.2396ZM47.0172 61.9697H46.9959V67.9844H43.0075V61.9697H42.9861L40.9813 60.0075L42.9861 57.9386H47.0173L49.0221 60.0075L47.0172 61.9697ZM58.2358 59.2396L52.861 56.5843L53.7462 54.7927L59.121 57.448L58.2358 59.2396Z" fill="white"/>
</svg>
