<svg width="35" height="35" viewBox="0 0 35 35" fill="none" xmlns="http://www.w3.org/2000/svg">
<path d="M12.2887 27.9997C9.05374 27.9997 6.03817 27.0929 3.5 25.5282C5.65499 25.6626 9.45807 25.3407 11.8236 23.1662C8.26508 23.0088 6.66026 20.3785 6.45094 19.2544C6.75329 19.3668 8.1953 19.5017 9.00934 19.187C4.9159 18.1978 4.28793 14.7356 4.42748 13.679C5.195 14.1961 6.49745 14.3759 7.00913 14.331C3.19479 11.7007 4.56703 7.74393 5.24151 6.88963C7.97882 10.5445 12.0812 12.5973 17.1564 12.7115C17.0607 12.307 17.0102 11.8859 17.0102 11.4534C17.0102 8.34933 19.6134 5.83301 22.8247 5.83301C24.5025 5.83301 26.0144 6.51994 27.0757 7.61871C28.1969 7.3655 29.8843 6.77275 30.7092 6.26015C30.2934 7.69896 28.9989 8.89923 28.2159 9.34409C28.2095 9.32889 28.2224 9.35922 28.2159 9.34409C28.9037 9.24382 30.7648 8.89911 31.5 8.41837C31.1364 9.22668 29.764 10.5706 28.6377 11.323C28.8473 20.2298 21.7765 27.9997 12.2887 27.9997Z" fill="#47ACDF"/>
</svg>
