<svg width="14" height="15" viewBox="0 0 14 15" fill="none" xmlns="http://www.w3.org/2000/svg">
<path d="M6.75781 7.89063C4.57754 7.89063 2.8125 6.12945 2.8125 3.95395C2.8125 1.77844 4.57754 0 6.75781 0C8.93809 0 10.7031 1.76118 10.7031 3.93668C10.7031 6.11218 8.93809 7.89063 6.75781 7.89063ZM6.75781 1.32949C5.30431 1.32949 4.12757 2.50353 4.12757 3.95398C4.12757 5.4043 5.30431 6.56123 6.75781 6.56123C8.21132 6.56123 9.38805 5.38719 9.38805 3.93674C9.38805 2.48642 8.21132 1.32949 6.75781 1.32949Z" fill="#191900"/>
<path d="M13.5156 15H12.1882C12.1882 11.9831 9.75753 9.53823 6.75781 9.53823C3.75809 9.53823 1.32745 11.9831 1.32745 15H0C0 11.2548 3.03407 8.20312 6.75778 8.20312C10.4815 8.20312 13.5156 11.2548 13.5156 15H13.5156Z" fill="#191900"/>
</svg>
