<svg width="35" height="35" viewBox="0 0 35 35" fill="none" xmlns="http://www.w3.org/2000/svg">
<path d="M2.5974 10.9385C2.73664 8.7948 4.46013 7.11481 6.60569 7.00851C9.7126 6.85459 14.1533 6.66895 17.4992 6.66895C20.8451 6.66895 25.2858 6.85459 28.3927 7.00851C30.5382 7.11481 32.2617 8.7948 32.401 10.9385C32.5344 12.9923 32.6659 15.5194 32.6659 17.5023C32.6659 19.4851 32.5344 22.0123 32.401 24.0661C32.2617 26.2098 30.5382 27.8897 28.3927 27.996C25.2858 28.15 20.8451 28.3356 17.4992 28.3356C14.1533 28.3356 9.7126 28.15 6.60569 27.996C4.46013 27.8897 2.73664 26.2098 2.5974 24.0661C2.464 22.0123 2.33252 19.4851 2.33252 17.5023C2.33252 15.5194 2.464 12.9923 2.5974 10.9385Z" fill="#FC0D1B"/>
<path d="M14.2495 13.1689V21.8356L22.9162 17.5023L14.2495 13.1689Z" fill="white"/>
</svg>
